<svg enable-background="new 0 0 432 432" viewBox="0 0 432 432" xmlns="http://www.w3.org/2000/svg"><g clip-rule="evenodd" fill="#a72a22" fill-rule="evenodd"><path d="m200.8 133.3c-.2-.1-.7-.4-.8-.1 0 .2.7.5.8.1z"/><path d="m203 134.2c.1-.3-.4-.3-.5-.2 0 .4.4.2.5.2z"/><path d="m203.3 134.1c.2.3.6.3 1 .3-.1-.2-.7-.4-1-.3z"/><path d="m206.1 134.7c-.2 0-.6-.4-.8 0 .2.1.7.4.8 0z"/><path d="m184.4 137.9c0-.3-.1-.5-.3-.5-.2.2.1.5.3.5z"/><path d="m153.4 181.5c-.1 0-.2 0-.2-.1-.1.1-.1.2-.1.4.3.1.2-.2.3-.3z"/><path d="m121.8 188.1c.1 0 .1-.1.2-.1 0-.1 0-.2 0-.3-.1-.1-.5-.1-.6 0 0 .2.2.4.4.4z"/><path d="m126.6 195.5c.3.2.5.1.8.1.1-.6-.9-.6-.8-.1z"/><path d="m168.3 203.4c-.2.1-.3.6.2.5.1-.1 0-.4-.2-.5z"/><path d="m106.3 212c.4-.3 1.1-.3 1.3-.8 2-.8 4.7.1 5.7 1.4.1.2-.1.3.1.5 1.6.1 3 .6 3.3 2.3.7.3 1.1 0 1.6-.3-.8-.8.7-1 1-1.6.6 0 1.1-.3 1.8-.3.5.1.9.4 1.3.3.8-.2.8-1.1 1.1-1.7-1.5-.5-3.5-.4-5.2-.7-.5-.9-2.2-.7-3.2-1.2.1-.6-.2-.8-.3-1.3-.7 0-.8-.6-1.3-.8-.6.1-.7-.2-1.3-.2-.2.1-.3.4-.5.5-.2 0-.2-.2-.4-.2-.5.5-1.2.7-1.7 1.1-1.3-.6-3.2-.5-4.3-1.3.4-.6-.4-1.2-.9-.9-.2.3 0 .5.2.7-.1.2-.3.5-.1.7-.5.3-.7 1.1-.7 1.7.1 1.4 1.5 1.7 2.5 2.1z"/><path d="m122.6 213.9c-.2 0-.4 0-.5.1v.3c.3-.1.5-.2.5-.4z"/><path d="m139.4 224.3c.1.1.3.2.3.3-.1.3-.6 1.2 0 1.3.1-.5.2-1.1.3-1.6-.2-.2-.2-.2-.1-.5-.2-.2-.4.2-.5.5z"/><path d="m236.6 232.6c-.5-.2-.9.3-1 .7.6 0 .9-.2 1-.7z"/><path d="m250.1 236.5c0 .4-.5.2-.6.4-.1.6.3.7.5.9.2-.1.5-.1.7-.3 0-.4-.3-.5-.5-.7.2-.1.2-.3-.1-.3z"/><path d="m252.8 238.2c.4 0 .6-.1 1-.1 0-.2.2-.3.2-.5-.4-.1-.3-.8-.7-.8-.1 0-.4.1-.6.2.3.3-.3.7.1 1.2z"/><path d="m96.7 238.1c-.1-.3 0-.8-.2-.9-.2.1-.3.4-.4.6.1 0 .3.5.6.3z"/><path d="m251.4 237.3c-.4-.1-.5.3-.3.5.2 0 .3-.3.3-.5z"/><path d="m96.3 239.3c1.3.3 1.8 1.3 2.9 1.8.6-.1.7-.2 1.4-.2.3.1.3.5.7.4.2-.1.4-.1.4-.3-.5-.2-.9-.6-1.3-.8-1.2.3-3.3-.9-3-2.1-.6.1-1.1.5-1.1 1.2z"/><path d="m249.9 242c.1.1.4.1.7.1 0 .4.3.5.7.6.1-.4.7-.8.3-1.2.6-.5.7-1.3.7-2.1h.2c-.1-.5.2-.5.2-.9-.6-.5-.7.5-1.3.5 0 .1 0 .3-.1.3s-.1-.1-.2-.1c-.5.9-1 1.8-1.2 2.8z"/><path d="m254 238.8c-.4 0-.9-.1-.9.2.2.3.9.2.9-.2z"/><path d="m225.6 240.5c.1-.3-.3-.1-.2-.3.1-.1.2-.3.5-.3-.1-.5.4-.3.4-.7-.3-.1-.5-.3-.9-.2 0 .1-.1.1-.2.2.3.9-.5 1-.7 1.7.3 0 .8-.3 1.1-.4z"/><path d="m132.8 241.8c-1-.2-1.8.2-2.3.2.4.5.9.9.8 1.6h.5c.3.5.8.7 1.4.8.3.1.8.2 1.1.4.2.1.3.4.5.5.1.1.3-.1.4 0 .2.1.3.4.6.4.4 0 .9.1 1.1-.1.4.4 1.2.3 1.3 1 .3 0 .7.1.9-.1.1-.4-.2-.3-.2-.7.4-.4 1.2-.4 1.7-.3 0-.1.2-.3.5-.3.1 0 .1.2.2.3.3-.2.7-.3 1-.4 0-.4.1-.4.3-.8-.4-.1-.4.1-.8.1.3-.4-.1-.5-.2-.8.2-.3.2-.8-.1-1 .3-.5 0-.7.2-1.3-.8-.4-1.4-.5-2.3-.2-.3-.3-.2-1.2-.8-1.3 0 .2-.1.3-.2.3-.2 0-.1-.3-.3-.3-.2.7-1 .9-1.6.4-.2.9-2.5.5-2 1.7-.4.2-1.2-.1-1.7-.1z"/><path d="m253.1 240.1h.2c0-.2 0-.3-.2-.3.1.1 0 .1 0 .3z"/><path d="m250 246.3c.4.5.8.1 1.3-.2.2-.1.3.1.4 0 .2-.2.1-.3.2-.4.1 0 .1-.1.2-.1 0 .2.3.1.3.3.4-.2.9-.1 1.1-.6-.4 0-.4-.3-.7-.5.3-.4.9.1 1-.3 0-.2-.3-.1-.2-.3.4-.6.8-1.1 1.4-1.6.6-.4 1.5-.6 1.4-1.5-.3 0-.4.1-.6.1.1-.1.1-.3 0-.4-.4.1-.4 0-.5-.3-.5-.1-.5.3-.9.3-.1.3.1.3.2.4-.6.1.1.5-.4.7-.1-.1-.2-.1-.3 0-.2 1-1.3 1.8-2.4 2.3-.1.2.3.3.1.3-.4.1-.8.4-.7.8-.1 0-.3 0-.4 0-.5.2-.2.7-.5 1z"/><path d="m252.5 242.3c.4.1.3-.3.5-.3.3-.2.8-.2.8-.8-.5-.3-.7.3-1.2.3.1.3 0 .6-.1.8z"/><path d="m98.5 241.9c-.4 0-.5.2-.3.4.2 0 .3-.1.3-.4z"/><path d="m149.7 244.4c-.1.3.1.5.1.8.5-.1-.1-.4.2-.8-.2 0-.2 0-.3 0z"/><path d="m150.1 245.3c.1.7.6 1.1 1.3 1.3 0-.2-.2-.2-.1-.4-.6.1-.6-.8-1.2-.9z"/><path d="m217.1 250.4c.1-.8-.9-.6-1.6-.4-.1.4.3.4.2.8.7 0 1.3 0 1.4-.4z"/><path d="m228 252.4c0 .4.4.5.8.5.1-.5-.5-.6-.8-.5z"/><path d="m216.9 254c0-.2-.1-.3-.3-.3-.1.3.1.3.3.3z"/><path d="m222.9 254.6c0 .2.3.3.2.6.4 0 0-.3.3-.3.2 0 .2.2.5.2.2-.2-.2-.5.3-.4-.1-.3.3-.6-.2-.6-.1.6-.6.1-1.1.2.4.2 0 .3 0 .3z"/><path d="m225 255.1c.1-.2.5-.3.6-.5-.3-.3-.9-.6-1 .1.2.1.1.4.4.4z"/><path d="m172.2 255.6c-.1 0-.1-.1-.2-.1-.6.7-1.4.7-2.3 1.2 0 .2 0 .4-.1.5-.3-.1-.4-.6-.7-.4.2.5.7.8.7 1.7.4-.2.7 0 1.2-.2.5-.9 1-1.7 1.4-2.7z"/><path d="m173.7 256.2c-.2.2-.2.5-.2.9.6.1.8-.9.2-.9z"/><path d="m174.6 256.5c-.1 0-.2 0-.2 0-.3.4 0 .9.3 1.1.5-.4 0-.7-.1-1.1z"/><path d="m175.1 257c.1-.1.1-.3-.1-.3 0 0 0 .2.1.3z"/><path d="m208 269.8c-.1.5.3.5 0 1 1.5-.3 1.8 1.2 1.6 2.8.7.3 1.5.4 1.3 1.5.3 0 .3-.1.6-.1.3-.7.9-1.1 1.5-1.4-.2.6.4.3.4.6-.7.4-1.2 1-1.5 1.8.1.1.3 0 .3.2-.1.2-.4.1-.3.5.1.1.8 0 1-.1.1-.2-.3-.4 0-.5.3.2.9.3 1.1-.2-.2-.3-.4.3-.5 0 .1-.4.5-.4.6-.8.2 0 .2.2.4.2.1-.2.3-.4.5-.5.1-.3-.2-.2-.2-.4.2 0 .1-.2.4-.2 0 .2-.2.2-.1.4.3 0 .6 0 .6-.3 0-.2-.4 0-.3-.3.1-.2.3-.3.3-.6 0-.2-.3-.1-.3-.3.2-.2-.2-.3-.1-.6.2.1.4.3.7.2.1-.1.1-.3.1-.5.2.2.2-.1.4-.1-.5.7.6.6.2 1.2.9.4 1.6-.4 2-1-.1.6.6.4.7.8.2 0 .3-.1.5-.2 0-.5 0-.9 0-1.4-.5-.2-1 0-1.3-.3.3-.1.6-.2.9-.4-.1-.4-.4-.5-.6-.8.6 0 .7.5 1.2.7.4 0 .3-.4.6-.4 0 .1 0 .3.2.2.5-.1.6-.7.7-1.3-.2-.3-.8-.1-.8-.7.3.1.3.1.8.1-.1.4.7.1.7.5.4-.2.7-.3 1 0 .2-.7.5-1.3 1.2-1.6 0-.4-.1-.4.1-.7-.6.3-1.2-.2-1.7 0 0-.2.2-.3.2-.5-.2-.3-.5.2-.6 0 .2-.6 1.1-.4 1.4-.8-.2-.5-.1-.7-.2-1.4-.4 0-.6-.2-.9-.3.2-.2-.1-.1 0-.4-.3.1-.3-.3-.5-.1 0 .2.1.2.2.3-.5-.2-.2.6-.7.5-.1 0-.1-.2-.2-.2-.3.2-.6.5-.8.8-.2-.3-.4 0-.5-.3.3-.3.7-.6.8-1.1-.1-.1-.3 0-.3-.2.1-.1 0-.3.2-.3.6.2.7-.5.9-.7 0 .2 0 .3.1.4.4 0 .3-.4.6-.4.7.1.7.3 1.3 0 .1-.4-.2-.3-.3-.5.2 0 .1-.3.3-.3.2.5.5.3.9.7.4-.1.4-.7.8-.8 0-.7.3-1.1-.2-1.5-.2.3-.4.5-.7.3 0-.2.3-.1.3-.3-.2-.1-.2-.4-.5-.4-.2.1-.3.3-.5.3-.2-.4-.5-.9-.9-.7-.2.2 0 .6-.2.7-.3-.1-.4-.3-.6-.7.9-.4 1.1-1.4 1.2-2-.6 0-1 .1-1.3.4-.2-.2 0-.3 0-.5-.1 0-.2 0-.3 0-.2.6-1 .8-.5 1.6-.7.1-.7.9-1.5.7-.1.5.4.4.5.8-.2.2-.3-.2-.7-.1-.2.2 0 .4 0 .7-.2-.1-.4-.3-.8-.3-.1.2-.4.3-.4.6.1.1.4.2.4.4-.2.1-.8-.4-1.1 0v.6c-.8-.1-.8.5-1.3.8 0 .4.4.2.4.6-.5-.2-.1.5-.3.5-.1-.1-.2-.2-.4-.2-.1.4-.4.5-.5.8.5-.1.7.2.8.5-.6-.2-.2.6-.3.7-.1 0-.1.1-.2.1 0-.5-.5-.6-.5-1.1-.8.2-1.9.1-2.2.7.1.3-.1.8.2 1.2.5 0 .9 0 1.3.3-.3 0-.7 0-1 0-.1.4.1.5.2.6-.1.2-.2.4-.3.6-.4-.1-.4-.6-.4-1.2-.2 0-.2-.2-.4-.2-.3-.1-.2.2-.4.2-.8-.4-1.7.2-2.2.7-.2 0-.3 0-.5 0v.3c-.6.2-.9.7-1.2 1.3 0 .2.1.2.1.4-.3.4-.5.4-.7.4z"/><path d="m176.6 257.6c-.1 0-.2-.1-.3-.1-.2.2.1.1 0 .4h.3s0-.2 0-.3z"/><path d="m215.8 257.9c0-.2 0-.4-.3-.3-.1.2 0 .5.3.3z"/><path d="m174.3 258h.2c0-.2-.1-.3-.2-.2z"/><path d="m223.7 258.6c.1.1.3.1.3-.1-.1-.1-.3-.1-.3.1z"/><path d="m226.6 261.1c-.6-.3-.9.1-.8.8.1 0 .2 0 .2.2.4 0 .7-.3.6-1z"/><path d="m337.1 268.7c0-.1.1-.2.2-.3-.3-.1-.5.3-.2.3z"/><path d="m223.2 270c.4.1.4-.1.5-.3-.1-.1-.4-.1-.5 0z"/><path d="m112.6 271.4c-.1.1-.1.4-.1.6.7-.1.4.6.9.7.4-.1.2-.7.7-.7 0-.5.4-.6.4-1.1-.5 0-.6.4-1.1.4-.2-.3-.5.2-.8.1z"/><path d="m196.8 274.1c0 .2 0 .3.2.3-.1-.1 0-.4-.2-.3z"/><path d="m195.2 275.1h.2c0-.1.1-.1.1-.2-.1 0-.1-.1-.2-.1-.1.1-.1.2-.1.3z"/><path d="m194.8 275.1c-.4-.1-.4.2-.3.5.3 0 .3-.3.3-.5z"/><path d="m195.4 275.3c-.1.5.4.5.4.2-.2 0-.2-.2-.4-.2z"/><path d="m192.3 276c.2 0 .3.2.3-.1-.1-.1-.3-.1-.3.1z"/><path d="m194.6 276.2c0-.2.2-.3-.1-.3-.1.1-.3.3.1.3z"/><path d="m117.4 278.1h.4c.1-.3.6-.3.7-.7-.1-.1-.2-.2-.2-.3-.5.1-1.2 0-1.9 0 0 .6.8.5 1 1z"/><path d="m212.5 277.2c-.8 0-1.5 0-1.8.6-.2-.1-.2-.3-.4-.4-.2 0-.4-.1-.6 0-.5.1-2.3 1.6-1.3 2.2.7-.6 1.4-1.1 2.3-1.5.2.7 1 .5 1.4.4.6-.1 1.6.2 1.8-.4 0-.1 0-.2 0-.3-.6 0-.5.1-1 .1-.1-.4-.4-.4-.4-.7z"/><path d="m192.5 278c.7.6 1.5-.3 2.3.2 0-1-2.1-1.1-2.3-.2z"/><path d="m190.1 278.1c-.1.1-.2.5 0 .5.1-.2.4-.4 0-.5z"/><path d="m188.8 280.5c.5.5 1-.2 1-.7 0-.3-.5-.4-.2-.8-.3.1-.3-.1-.5-.1-.1.3-.2 1.1.1 1.3 0 .3-.3.1-.4.3z"/><path d="m337.3 279.3c-.2 0-.2-.2-.4-.1 0 .1 0 .3.1.3.2.1.2 0 .3-.2z"/><path d="m195.8 280.9c-.2.3-.3 1 .3 1 .3-.4 0-.7.1-1-.1 0-.2 0-.4 0z"/><path d="m188 281.8c-.1-.2-.5-.1-.6 0v.2c.1 0 .7.2.6-.2z"/><path d="m196.1 282.4c.1.3.1.3-.1.5.2.2.4.4.7.5.2-.2-.2-.7.2-.6.1-.3-.1-.4-.2-.6-.2 0-.4.1-.6.2z"/><path d="m170 283.3s.3.1.2.1c.2-.3-.3-.3-.2-.1z"/><path d="m182.9 285.4c.4 0 .3-.3.6-.3.1-.3-.3-.1-.2-.3.4-.1.7.4 1 .2 0-.6-.7-.5-.7-1.1-.1 0-.3 0-.4 0-.1.3.4 0 .2.3-.5.1-.5.8-.5 1.2z"/><path d="m202.2 284.8c0 .3.1.5.2.7.4-.1.5.2.8.2.5-.4.1-1.1.2-1.7-.6-.5-.5.8-1.2.8z"/><path d="m178.3 292.6c.4.1.6 0 1.1.1-.1.3.2.2.2.3-.1.2-.2.5-.1.7.5 0 .6-.3.9-.4 0-.3-.2-.3-.2-.6.2 0 .4 0 .3-.3-.4-.3-1.1-.1-1.4-.4.2-.1.3-.8 0-.9.3-.3 0-.6.3-1-.1 0-.2 0-.3 0 0 .7-.7.7-.6 1.5-.1 0-.2 0-.3 0 .2.4.1.6.1 1z"/><path d="m174.9 294.4c.6 0 .1-.9.8-.8 0-.1 0-.2 0-.3.5-.1.6-.8 1.2-.8.1-.2-.2-.3 0-.3.2.1.4 0 .4.1-.2.3-.3.8.2.7.2-.2 0-.2 0-.5.4 0 .5-.2.7-.5 0-.2-.1-.3-.2-.3-.1.1-.1.3-.2.4-.1 0-.3 0-.3-.1.2-.1.2-.4.2-.7-.1 0-.4.1-.4-.1.1-.2.3-.4.2-.8-.9-.6-.4 1.1-1.5.6-.2.3.3.4.1.5-.4-.3-.4.3-.8.3.1.5 0 .8.4 1-.2.1-.3.3-.5.3 0 .1 0 .3.1.3-.1.1-.3.1-.4.2-.3.5-.1.6 0 .8z"/><path d="m165.8 291.1c.5.3 1.2 0 1.3-.7-.4 0-1.4 0-1.3.7z"/><path d="m168.2 290.8c-.4 0-.9-.1-.8.3.2.2.4.5.8.4.1-.2.1-.5 0-.7z"/><path d="m178.3 291c-.1.1-.1.5.2.4.2-.1 0-.3-.2-.4z"/><path d="m176.1 293.8c.1-.3-.1-.4-.2-.4-.2.1-.1.5.2.4z"/><path d="m176.9 293.5c.1 0 .2-.1.2-.2-.1.1-.2.1-.2.2z"/><path d="m180.5 294.4c.6.1.9-.4.8-.8-.9-.4-1.3.3-.8.8z"/><path d="m161 294.3c-.2 0-.3 0-.3.2.1.1.4 0 .3-.2z"/><path d="m177.3 294.9c0 .1.1.1.2.3.4 0 .5-.3.8-.4-.2-.6-.9-.3-1 .1z"/><path d="m161.3 294.4v.2c.2.2.2-.3 0-.2z"/><path d="m162.9 294.4v.2h.2c0-.1 0-.1 0-.2-.1 0-.1 0-.2 0z"/><path d="m178.7 294.5c-.1.4-.1.8.1 1 .4 0 .6-.1.6-.5-.3-.1-.3-.4-.7-.5z"/><path d="m159.5 294.8v.3h.2c0-.1 0-.2 0-.3-.1 0-.1 0-.2 0z"/><path d="m142.9 299.9c-.5-.2-1.4-.2-1.5.6.4.1.3.5.5.8-.4-.1-.2.3-.5.2-.1-.3-.5-.5-.8-.6 0-.3 0-.6 0-.8-.3-.3-.4.1-.8-.1-.1.2.2.6-.2.6-.2 0 0-.4-.1-.5-.2-.2-.3-.1-.7-.1-.4.6.2 1.1-.1 1.7.1.3.4.5.4.8.5-.1.8-.3 1.1.1.4-.5 1.2-.3 1.6-.9 0 .2.3.2.5.2.5 0 .3-.8 1-.7 0-.1 0-.3 0-.4-.2-.2-.9.1-.9-.3.2-.3.5-.3.5-.6z"/><path d="m146.3 300.9c.2.1.3.3.6.2-.1-.3.3-.1.3-.5-.2-.3-.7 0-.9.3z"/><path d="m144.3 301.9c-.8-.1-1.9-.1-2.1.7.3.2.7-.1.8-.3.6-.2.7.3 1.2.2.2 0 .2-.3.3-.4.5.1.8.2 1.6.2.1-.2.5-.7.3-.9-.7.1-1.9-.2-2.1.5z"/><path d="m130.1 308.4c-.1 0-.3.2-.3.3-.1 0-.3 0-.4 0-.4.1-.6.7-1.1.8.1.2-.1.2-.1.4.5.1 1 .2 1.4.5.3 0 .2-.4.4-.4.3 0 .3.3.6.3.2-.1-.1-.3.2-.3.2 0 .2.2.4.2.4 0 .3-.9.8-.6.1-.2.2-.7.5-.4 0-.6.7-.4.9-.7.2 0 .2.3.4.2 0-.1.1-.2.2-.2.2.4.7-.1 1.2 0 .2-.1 0-.5.2-.5s.2.1.4.1c.1-.3.1-.6.5-.4 0-.3.2-.3.1-.6.1 0 .2.1.3.1.2-.2-.1-.2-.1-.5.8-.2 1.2-.3 1.7-.7.4 0 .6-.2.6-.6h.2c.1-.3-.1-.4-.1-.6.2-.1.5-.2.6-.5-.3-.1-.2.2-.5.2-.7-.2-1.1.7-1.8.8 0-1 1.4-.6 1.3-1.6-.3 0-.4-.2-.4-.5-.3-.1-.2.3-.6.2.1-.1.1-.3 0-.4-.6 0-.5.6-.8 1-.1-.2-.4-.1-.5-.2 0-.2 0-.4 0-.6-.3-.5-1.2-.3-1.5-.3 0-.1 0-.2-.1-.2-.2.1-.1.4-.3.4-.1-.1-.2-.3-.4-.3-.3 0-.2.4-.5.4 0-.1 0-.3-.1-.3-.3 0-.6 0-.7.3.5.1-.5.7.1.9-.1.2-.3.3-.3.7.4.1.5.5.8.7.2 0 .5-.1.4.2-.2.1-.5.1-.7.3-.1.3.2.5.1.6-.4 0-.6.1-.7.4.1.2.2.4.2.7-.7-.2-.1.4-.6.5-.2-.1-.3-.1-.5-.2-.1.2-.1.4-.3.4-.3-.2-.2.2-.6 0-.1 0-.4 0-.5 0z"/><path d="m138.3 303v.2c.4.3 1 .1 1.1-.3-.3 0-.9-.4-1.1.1z"/><path d="m122.6 311.9c-.2.6-.9.3-1 .8 0 .1.4 0 .4.2-.1.2-.4.3-.7.3-.1.3.2.4 0 .6-.2 0-.3 0-.5 0 0 .4-.4.3-.4.7.3 0 .4-.1.7-.1 0-.1 0-.2.1-.2.4-.1.6-.4 1.3-.6v.2c.5 0 .7-.4 1-.5 0-.8.9-.8 1.3-.9 0-.2-.1-.2-.1-.4.6-.3.6-1.1 1.1-1.5.2-.2.5-.2.8-.2.1-.1.1-.3.2-.3.3.1.3-.1.5-.1 0-.1-.1-.2 0-.2.3.1.8-.4 1.2-.5.1-.3-.2-.3-.2-.6.2-.3.5-.5.3-.9-.6 0-1.1 0-1.2-.4-1.2-.1-2.1.6-2.8 1.3.1.6.1.8-.2 1.2.2.1.6.3.4.5-.2 0-.7-.3-.9.1-.2 0-.2-.3-.5-.3-.2.3-1.5.8-.8 1.8z"/><path d="m116.9 313.2c.3-.2.5-.5.4-1-.1-.1-.3-.1-.5-.1.2-.2 0-.3-.1-.4-.3 0-.4.1-.4.3.7.1-.1 1.2.6 1.2z"/><path d="m12.8 314.2c0 .2 0 .4.3.4.3-.1.3-.5.7-.3 0-.4-.5-.3-.7-.4.3-.3-.2-.5-.2-.8-.4.1-.7-.3-1-.6-.4.1-1 0-1.2.3-.2-.3-.9-.8-1.2-.2-.7-.2-1.5.2-1.6.9.6.4 1.9.3 1.8 1.3.3.1.4-.1.8-.1.1.1 0 .5.3.4s.4-.5.7-.7c.2.2.4.4.8.3.1-.2.2-.6.5-.5z"/><path d="m114.3 313.5c.1.3.3.6.7.6-.3.6.7.9 1.1.4.4 0 .4.4.7.4.1 0 .1-.1.3-.1-.1-.5.2-.4.2-1-.4-.4-1.2-.4-1.5.1-.3-.1-.3 0-.6-.1.1-.1.1-.2.1-.4-.3-.3-.8-.2-1 .1z"/><path d="m120.5 313.6c.1-.3-.4-.3-.3 0 .1.1 0 0 .3 0z"/><path d="m119.6 314.9c.3.2.7-.1.8-.4-.3-.2-.6.2-.8.4z"/><path d="m114 314.6c0 .3-.1.5-.1.8.6.1 1.1.1 1-.7-.3-.1-.4-.3-.9-.1z"/><path d="m17.5 315.4c0-.6-.6-.6-1.1-.7.1.6.7.5 1.1.7z"/><path d="m17.6 315.4c.2.2.6.2.8.2.2-.6-.7-.8-.8-.2z"/><path d="m111.9 315.8c-.1 0-.1-.1-.1-.2-.7-.6-1.1.2-1.8.4 0 .4-.1.5-.1.9.2 0 .3.2.5.2.3-.8 1.5-.2 1.5-1.3z"/><path d="m20.8 316.1c-.1 0-.2 0-.3 0v.3h.3c0-.2 0-.2 0-.3z"/><path d="m108.4 317c.2-.7-.6-.6-.5 0z"/><path d="m107.2 318.1h.6c0-.3.2-.4.2-.7-.2 0-.3-.3-.6-.3-.3.1-.4.7-.2 1z"/><path d="m13.4 318.4c.4.6 1.8.2 2.3.5.1-.4.1-.7-.1-1.1.3 0 .4-.2.3-.6-.4 0-.6.1-1.1.1-.2.6-1.1.5-1.4 1.1z"/><path d="m86.3 322.4c.3-.2.9-.3 1.3-.4 0 .1 0 .3.1.3.2-.1.3-.1.5 0 .2-.3.2-.8.6-1 .1.1.3.1.4.3.3-.1.4-.3.7-.3.3.3 1 0 1.2.6.3 0 .5.2.8.2.3-.3.9 0 1.3-.2.1.2.4.2.6.3.3 0 .2-.2.4-.2.8 0 2.4-.4 3.1-.3 0-.2 0-.4-.1-.5-.8.2-1.8-.3-2.4.1-.1-.4-.6-.2-1-.2 0-.2 0-.3-.1-.4-.7-.2-1.7.7-2.2.1-.7.3-1.6.2-1.7-.6h.6c.1-.4.4-.6.6-.9-.1-1.3-2.3-1.6-2.4-.3-.9 0-.8.9-.8 1.4-.1.1-.3.1-.5.1-.1.5-.5.8-1.1.6-.2.4-.7.1-1.1 0-.1.3-.4.5-.7.3-.2.6-1.6.1-1.9.8 1.1.8 2.7-.6 3.8.2z"/><path d="m101.3 319c-.6-1-2.2-.4-2.2.9.9.2 1.9-.2 2.2-.9z"/><path d="m29.1 319.2c.3 0 .4-.1.4-.3 0-.3-.7-.4-.9-.2.2.1.2.5.5.5z"/><path d="m83.9 320.3c0-.1 0-.2 0-.2-.1 0-.2 0-.3 0 0 .2.1.2.3.2z"/><path d="m81.6 320.9c0-.1.1-.1.2-.1 0-.2 0-.3-.1-.4-.1 0-.2 0-.3 0-.2.2 0 .5.2.5z"/><path d="m87.1 320.6c-.2 0-.4 0-.4.2.1.1.3-.1.4-.2z"/><path d="m37.8 324.2c.1-.4 0-1 .5-1 .4.3.5-.1 1.2.1 0-.4.5-.2.7-.3-.1-.3-.5-.5-.7-.2 0-.8.8-.7.6-1.3-.1-.3-.4-.4-.6-.4-.5.1-.5 1.2-.8 1.5-.3 0-.4.1-.7.1-.1.5-.8.5-1 1 .3-.1.4.4.8.5z"/><path d="m72.9 326.5c.2-.3.3-.7.6-.8 0 .3 0 .6.3.7.1-.2.3-.3.5-.2.1-.1.1-.4.1-.6.2 0 .2.3.4.3.1-.5.7-.3.8-.7.6 0 1.5.2 1.6-.8.2.1.3.4.5.5.3-.3.5-.6 1-.3.1-.3-.1-.3-.1-.5.3.1.4-.1.4-.4-.1-.2-.4-.3-.5-.5.4-.1 0-.5 0-.7 0-.1.1-.2.3-.2-.2-1.2-1.6-1.3-1.7-.4 0 0 .1.6.2.8.1.1.2-.1.3.1 0 .1-.2.3-.1.4.4 0 .5.1.7.2-.3.1-.4.3-.4.5-.1-.2-.2-.3-.5-.3-.1.1 0 .3-.2.3-.6-.7-1.4.4-2.3-.2 0-.3.3-.2.5-.3-.1-.4.1-.7-.2-1-.4 0-.5.2-.6.4-.3 0-.4-.1-.7-.1-.4.2-.3.8 0 1.1-.2 0-.2.4-.3.5-.1-.2-.2-.3-.5-.2-.2.5 0 .8.2 1.2-.3.1-.4.3-.7.5-.1.3-.1.7.4.7z"/><path d="m43.2 322.5c.1-.9-1.1-.9-.8-.1.1.2.5.2.8.1z"/><path d="m79.3 321.8c-.2 0-.3 0-.3.2.1 0 .2.1.3.1 0-.1 0-.2 0-.3z"/><path d="m52.8 322.7c-.3-.3-.6-.6-1-.8-.4.1-.6.5-1 .6 0 .2 0 .4-.1.5.5.9 2 .7 2.1-.3z"/><path d="m95.7 322.2v.3h.2c0-.1 0-.2 0-.3 0 0-.1 0-.2 0z"/><path d="m78.7 322.4v.3c.5 0 .6.6 1.1.6s.9-.6 1.4-.4c-.1-.3-.7-.2-1.1-.3-.1.1-.1.3-.2.3-.1-.1-.1-.3-.1-.5-.4 0-.9-.2-1.1 0z"/><path d="m81.6 322.6c.1.2.6.1.6-.2-.2-.1-.6-.1-.6.2z"/><path d="m43.9 323c.1 0 .2-.1.3-.2 0-.4-.5-.4-.8-.4 0 .4.3.4.5.6z"/><path d="m45.6 322.8c-.1-.5-1.3-.7-1.2.2.3.5 1.1.6 1.2-.2z"/><path d="m68 325.1c.2.2.1.7.3.8.2-.1.2-.3.3-.5.5 0 .9-.1 1.4-.3.3.1.2.5.6.5.4-.1.6-.3 1-.3 0-.5.2-.6 0-1.1.2-.3.5-.5.6-.9-.3-.2-.5-.5-1.1-.4-.1.4-.2.8-.2 1.3-.6.4-1.6.3-2 .8-.1-.1-.3-.2-.6-.2.1.2-.1.2-.3.3z"/><path d="m65.5 324.1c.1.6.9.3 1 .8-.3.1-.5.3-.9.2-.1.1-.1.4-.1.6.4 0 .5.3.9.2 0 .2.2.6.6.4 0-.2-.1-.4-.1-.7.3-.1.4 0 .6-.3-.2-.6.2-.8.3-1.1.5 0 .9-.1.8-.7-.7.2-.9.2-1.6 0-.1-1-1.1-.5-2-.6 0 .2-.3.3-.3.6.3.4.4.6.8.6z"/><path d="m69.5 323c0 .3-.1.4.1.6.5 0 .5-.7-.1-.6z"/><path d="m79.3 323.9c0-.1 0-.2 0-.3-.1 0-.2 0-.3 0v.3z"/><path d="m61.6 324.9c.8-.2 0-1.7-.7-.8 0 .6.3.9.7.8z"/><path d="m43.1 323.9c0 .5.6.4.7.8h.6c-.3-.5-.6-.8-1.3-.8z"/><path d="m45.6 326c.5.4 1.1.8 1.9.9.5.6 1 1.2 1.7 1.6v.3c.5-.1.8-.4 1.5-.2 0-.3-.3-.2-.2-.6-.5.1-.8-.4-.9.1.1-.4-.2-.4-.3-.7-1.2-.4-1.4-1.7-3-1.7-.1-.1-.3-.2-.5-.3-.1.3-.3.3-.2.6z"/><path d="m62.9 326.3c-.2-.3-1.2-.3-.8.3.3-.1.9.1.8-.3z"/><path d="m60.1 326.7c.1-.3-.1-.4-.3-.4-.1.1 0 .4.3.4z"/><path d="m61.2 326.9c.3 0 .6.1.7-.1-.2-.4-.5-.3-.9-.5 0 .1 0 .2-.1.2.4.1.1.3.3.4z"/><path d="m64.8 327.4c-.1-.1-.4-.2-.4.1.1 0 .4.1.4-.1z"/><path d="m60.3 329.2c.4-.1.6-1.1-.1-1.1-.1.2-.3.3-.3.7.3 0 .2.4.4.4z"/><path d="m59.3 330.1c.5.1.4-.3.7-.3.1-.4-.3-.4-.2-.7-.4 0-.7 0-.7.3.4.2.1.3.2.7z"/><path d="m423.1 265.3c.3-.4.6-1 .5-1.6-.9-.3-2.3-.2-2.8-.9.3-.3.3-.8.8-.9-1-1.4-1.7-3-2.9-4.3 0-.9-.9-1.3-1.4-1.9-.7-1-1.1-2.2-1.9-3.4-1-1.5-1.8-3.5-3-4.6-.5-1.5-1.6-2.6-2.4-3.8-.2-.6-.4-2-1.2-1.5-.1-.5-.7-.6-1-.9.2 0 .1-.3.1-.4-.3-.1-.6-.3-.9-.5-.4-.1-.3.4-.7.3-.3-.3-.8-.4-1.1-.7.6-.7-.7-.9-.2-1.8-.2-.2-.5-.1-.7-.3.4-.5 0-.7-.2-1.1-.4 0-1 .1-.9-.4-.2-.1-.7.1-.8-.1.1-.1.2-.3.1-.6-.5-.4-1-.8-1.9-.9-.2-.8-1-1-1.7-.7-.4-.3-.3-1.2.2-1.3.1-.4-.4-.3-.3-.7.7-.5 0-1.9-.2-2.5-.6 0-.8.1-1.2 0-.5-.8-.4-2.1-2-1.7 0-.1 0-.2 0-.3-.5.2-.9 0-1.3-.1-.2.4-.9.2-.7 1-.4.2-.7.4-1.1.6-.4.1-.3-.4-.7-.3-1 .7-3.4.1-3.6 1.5.4.2.8 0 1.1.3v.3c-.6.3-1 .7-1.3 1.2-.6-.2-.6.2-1 .2-.2.4-.1.9 0 1.3.3 0 .6 0 .6.3 0 .5-.5.6-.6 1-.6-.1-.7.2-.9.4-1.1.1-2.3.1-2.8.8-.3.3.2.2.1.6-.9.4-1.8.2-2.7.8.3.8-.7.9-1 1.3-.3-.5-.9.1-1.1-.1-.1-.7 0-1.3.3-1.7-.3-1.5-.6-3-1.9-3.5 0 .2-.2.3-.5.2-.3-.2-.5-.5-.9-.7.5-1.6-1.7-1.1-2.3-1.9 0-.3.2-.3.1-.7-.4-.4-.8-.7-1.5-.3-.1-.5-.8-.4-.9-.9.3 0 0-.5.1-.7-1.2-.5-1.9-1.4-2.1-2.8-.6.4-1.3.1-1.8-.2 0-.2.1-.2.1-.5-.5-.5-.9-.6-1.7-.3-.3-.3-.7-.4-.8-.9.9-.8-.3-1.8.4-2.8.3 0 .4.2.6 0 .3-.3.4-1.1 0-1.3-1.1-.1-1.9.2-3 .1-.3.5-.8.8-1.7.7-.2-.2 0-.6-.5-.6-.5.2-1 .6-.7 1.2-.5.1-.6.6-1 .8-.9-.4-2 .5-2.8-.3 0-.2 0-.4 0-.6-.6-.3-1.2-.6-1.9-.8-.4.3-.4.8-.8 1.1-.2.2-.7.1-1 .3-.1-.3-.7-.2-1-.3 0-.2 0-.4 0-.6-.7-.5-1.1-.2-1.8 0-.4-5.3-.2-11.4-.2-17.2 0-35.4.1-71.1-.1-106.1-1.1 0-2.4.7-2.8-.1 0-.2.4-.1.2-.4-.5-.1-.9-.3-1.4-.6-.4-.2-.8-.6-1.2-.8-.3-.1-1.4-.3-1.6-.3 0 0-.1.3-.2.2-.3-.1-.6-.5-1-.6-.2 0-.4 0-.7 0 0-.3-.3-.3-.5-.3-.5-.2-.8-.4-1.3-.4-.7-.7-2.1-1.2-3.1-1.7-.8-.3-1.4-.7-2-.2-.1-.1 0-.4-.3-.3-1.4.1-1.7-.8-2.8-.6.1 0 .3 0 .2.2-.5 0-1.3.5-1.6 0h.9c-.5-.6-1.4-.6-2.1-.6-.9.1-2 .7-2.9.7 0 .1 0 .3-.1.3-.3 0-.6 0-.9 0-.2.1 0 .4-.2.4s-.5 0-.8-.2c-.4.5-.9.2-1.5.3s-1.1.7-1.7.8c-.8.1-1.5-.3-2.4-.3-.2.3.3.4 0 .4-.4-.3-1.1-.4-1.9-.3-.2-.2.1-.2 0-.6-1.1.2-2.2.1-2.8-.7-1.3 0-1.9-.7-2.7-1.1-.4-.1-.5.1-.8.1-.1-.6-.8-.5-1.3-.7-.1 1 .9.1 1.1.8-.6.1-1.2-.1-1.5-.2-1.6-.5-3.7-.2-6.1-.3-.6.5-2.2.7-2.8 0 .1-.2.5-.1.5-.4-.3-.2-.5-.3-.9-.3-.1 1.4-2.5.4-3.9.5-.1-.6-.1-.6-.1-1-.6-.1-.8-.4-1.3-.1-.5-.3-1.2-.6-1.7-.7-.9-.1-1.5.6-2.6.6-.7-2.1-4-.8-5.1-2.1.1 0 .1-.2.1-.3-.8-.3-1.5-.6-2.3-.5-.1.3.4.1.2.6-.5-.2-.9.1-1.6-.3-.6.5-1.9-.2-2.6.3-.2-.2-.5-.3-.9-.2-.8.6-1.7 1.1-3.3.9 0-.3-.3-.3-.3-.7-1.6-.2-2.1-.1-3.7-.1-.2.1-.2.3-.3.4-1 0-2 .2-2.9.3-.2.2-.1.6-.3.8-1.2-.9-3.3-.7-4.6-.8-.2 0-.9.3-.9-.2.6-.1 1.3-.1 1.8-.3-.2-.4-.3-.5 0-.9-.3-.3-.8 0-1.2 0-.2-.4-.9-.4-1.5-.6-.2.1 0 .5-.3.4 0-.2 0-.2.1-.3-1.3 0-2.1-.4-3.3-.4 0-.3-.3-.3-.2-.7.8-.1.8-1 1.5-1.3.5 0 .8 0 .8-.4-.5-.5-1.4-.7-2.2-.9s-1.7-.1-2.4-.1c-1.1-.1-2-.5-2.8-.2-.5-.8-1.4-.1-2.2.1-.5.1-1.1-.2-1.3.2-.7-.4-2.4-.2-3.3-.1-.5.7-1.2 1.3-2.3 1.6-.4-1.1-1.8-.9-3-.8-.1-.4-.4-.6-.7-.8.5.1.3-.5.3-.9.1-.2.4-.2.3-.4-.8-.9-2.4-2-3.6-1.6.1-.5-.4-.6-.9-.6-.2.1 0 .5-.2.6-.3-.4-1.2.2-1.3.7.2.2.7.1.6.6-.8-.5-1.5.8-2.5.9 0 .6.2.7.2 1-.4.1-.6.5-1.1.6-.2-.6-1.5.1-2.3 0-.1-.7-.4-.7-.5-1.6.8-.2 1.3.1 1.9-.3.1.3-.2.3-.1.6.2.2.6.3.9.4.1-.4.4-.9 0-1.1.3 0 .2.2.4 0s-.1-.3-.1-.7c.3-.2.8-.2.8-.7-.2-.5-.5-.7-.6-1.3-1.1-.3-2.4.1-3-.6-.1.2-.3.5-.6.6-.3-1-1.8-1.2-2.9-1-.5-.5-1.3-.1-1.6-.9.9-.3.9-.5 1.8-.1-.1-.5-.6-.6-1.1-.7-.4.5-1.3.5-1.9.8-.5-.4-.9-.2-1.6-.1-.1.3-.1.6-.1 1.2-3.1 2.7-6.4 5.9-12.2 5.5-.3 0-.8-.5-1.1 0 .1.2.4 0 .5.2-.8.3-2 .3-3.1.2-.8-.1-1.9-.2-2.3-.7.7-.6 2.3-.2 2.8-1-1.9.1-3.7.8-5.2 1.1-.6.1-1.2.1-1.7.3-1.1.5-2.1 1.5-3.1 2-.2 0-.3 0-.5 0-2.3 2.6-6.3 3.6-10.1 4.7-1.3-.3-3.4-.3-4.9-.7-.2.1-.4.3-.7.4-1.7.5-3 1.4-4.4 2.2-.4.6-.7 1.1-1.1 1.6-1 1.1-2.4 1.8-3.3 2.8-.3.4-.3.9-.8 1.1.1.7-.3 1.2-.3 1.6-.1.9.1 1.7 0 2.5-.2 1.3-1.1 1.7-2 2.5-1.1.9-1.9 2.1-3.4 2.4-1.1.8-2.5 1.5-4.1 1.7-.8.1-1.6-.1-2.4 0-.5.1-.9.3-1.3.3-3.9.6-8.3.7-11.8.1.1 1.7 0 2.8-.2 4.4-.3.4-.7.6-.6 1.3-1.1.7-3.1.9-4.3 1.2 0 .2-.1.2-.1.5.2.3.7.2 1 0 2.6.4 5.1.8 6.2 2.7.7.5 1.5.4 2.4.6 3.3.6 5.7 2.8 8.3 4.2 0-.1.2-.1.3-.1.3.4.7.6.9 1.1.5-.1 1 .1 1.3.4.8 0 1.5.4 1.9.8.5.4.8.6 1.2 1.2 1 1.3 1.9 3.2 1.8 5.2 2.5.7 5.5.9 7.9 1.7.3-.3-.3-.4 0-.7.3.1.4-.1.7-.1.3.1.4.5.7.7.6-.2 1.1-.1 1.5.2.7-.1 1.3 0 1.9-.1 1.2-.2 2.3-.9 3.3-.8.6.1.7.7 1.3.8-.2.7-1.1.7-1 1.8-.2.2-.5.2-.7.4.1.6-.1.9-.1 1.4 1 1 2.5 1.5 3.4 2.6.4-.2 1-.1 1.3.1-1.7 1.3-3.5 0-4.9-.8-.1-.7-.8-.9-1.1-1.4-.1-.5.6-.8.6-1.6-1.5-.2-1.8-1.5-2.7-2.4-.3.1-.4.4-.8.4-.4-.5-1-.3-1.8-.4-.4.2-.4.8-1.1.7.3.5.3 1.3.6 1.6.2-.1 0-.5.2-.6 1 0 1.2.8 1.5 1.6 1.7 0 2.9.3 3.3 1.7 2 .4 2 2.1 1.1 3.6.4 0 .4.4.3.8.3 0 .7.1.9-.1-.2-.6-.4-.5-.6-1.1.7.1 1.1-.5 1.8-.6s1.2.2 1.8.3c.9.2 2.1.2 2.6.6.5.3.7 1 .9 1.2-.9-.4-2.3.7-2.6-.6-2.3-.6-2.3 1.6-3.3 2 0-.4 0-.8 0-1.2-.6.1-.5-.5-1.2-.3.3.6.2 1.2.5 1.9-.1 0-.2 0-.3 0-.1.3.4.5.1.7-1.5-.6-2.9-.6-4.3.1-.3 0-.1-.5-.6-.4-.6.1-1 .3-1.7.2 0-.4-.5-.3-.6-.7-.8-.1-1.3.3-2 0-1.3.9-2.7 0-4.5.1-1.5.8-2.9-.4-3.3-1.7.4-.3.9-.6 1-1.1-1.5-.7.3-1.8.6-2.6.1-.4-.3-.3-.2-.7.6-.1 1 .3 1.2-.1-1-.6-2.7-.6-4.3-.6-2.3.1-3.9.3-5.7.8-3.8.9-7.7 2.4-10.2 3.6 0-.2-.3-.1-.5-.1-.2.2-.4.5-.7.7-5 1.4-8.8 4.7-13.6 6.2-.9.3-1.8.3-2.5 1.1v1c.1 0 .1.1.1.2 2 .6 3.9 1.4 5.5 2.5 1.2.1 2.3.1 3.4.2 1.3.2 2.5 1.2 4 .7.4.5 1.2 0 1.5.7-.3.2-.7.4-1 .6 0 .4.2.4.1.8-.9.5-2.9 1.2-3.5-.1 0-.6 1-.8.7-1.3-.7-.2-1.1.9-1.2 1.7.4.9 1.4 1.2 2.1 1.7.2 1.4 2.3 1.1 2.5 2.5-.1.3-.3.3-.6.4 0 .5.2.6-.1.9.6 2 2.7 2.3 5.2 2.7 1.5.2 3.2.4 4.4.7.7.2 2.1.8 2.7.8 2 .1 3.2-1.2 4.8-1.6.1 0 .2.1.3.1.8-.1 1.3-.3 1.9-.2 1.1.1 2.1-.2 2.7-.2 1.6-.1 3 .5 4.3 1.1.4.4.6 1.1 1.3 1.2.3-.1.5-.4.4-1 .8.3.4-.6.7-.9.7-.1.7.5 1.1.7-.4.5.4.8.5 1.2-.2.3-.1.9.2 1 .4-.3.6-.8 1.3-.8.1-2 1.7-2.6 3.3-3.1.3-1.7 3.5-.5 4-2 .3.1.4-.1.7-.1.5 0 .7.5 1 .6 0 0 .3-.3.4-.3.3-.1.6 0 .9-.1.1-1.1 1.3-1.1 1.6-2 .4.8 1.2 1.1 2.1 1.3.4.8 1.2 1.6.8 2.6-.8.2-1.4 1.3-2.2.8-.2.1 0 .6-.2.7-1 0-1.6-.2-2.2-.6-.2.2-.5.3-.8.5 0 .8-.6 1-.4 1.9.5 0 .3-.6.9-.6.5 0 .6.4 1.2.2.5 1.2 2.2 1.3 2.6 2.7.1.5-.1 1.2 0 1.7 0 .1.3.3.3.6.2.8.5 1 .8 1.6-.2 0 0 .4-.1.6.2.1.4.2.5.5.1 1-1.2 2.4-2 2.5-.5 1.4-1.9 2.4-3.8 2-.3 0-.3.3-.7.3-1-.6-2.2.3-3.6 0 .1-.2.3-.3.2-.7-.7 0-2.1-.7-2.9-.7.2-.5-.1-.8-.3-1.1-.5-.1-.6.2-.9.2-.7-.6-1.6.3-2 .7.8.3 1.6.7 1.9 1.6 0-.4-.1-.6-.1-.9.3 0 .2-.2.6-.1-.4.4-.1.8.2 1.1-.3 0-.4 0-.5.2.2.1.2.3.2.6-1 .8-1.3 2.3-3.1 2.2-.1.2-.3.4-.2.8-.8.2-1.2 1-1.9 1.2-.5.2-1.2.1-1.9.2-1-.7-1.3-1.4-2.8-1.6 0-.4-.4-.4-.4-.8-.4 0-.8 0-1.2 0-2.3-1.4-5.6.4-6.5 1.8-.1.3.2.3.1.7-.6.3-1.2.8-1.5 1.5-.1.2 0 .6-.1.9s-.4.5-.5.8c-.1.6.2 1.3.3 1.8-.4 0-.4-.2-.8 0-.2-.1 0-.5-.2-.6-.1.5-.4.7-.8.7.2.4.1.9.1 1.5-.8.4-1.2 1-1.9 1.5 0 .4-.4.4-.3.9-.8.3-1.4 1.4-1.9 2-.3.4-.8.6-1 .9-.9 1.2-.9 2.8.4 3.7-.4-.1-.7.3-1.2.3-1 .1-2-.2-2.7.1.2.6-.4.4-.3.8-.2.8-.6 2.4-.2 3.5.4 0 .5.4 1.1.2.2-.2-.1-.2 0-.6.9-.3 2.1-.1 2.3.9-.6 0-.9.4-1.5.4 0 .8.4 1.2.7 1.7.6.1 1.3 0 1.8.4-.2.8.2 1.9.6 2.5.7 0 1.1.3 1.9.2.3-.3-.1-1.2.3-1.3 1.2.2 1.3 1.9 2.8 1.5-.6.7-1.9.1-2 1-.1.7 1.2 1.2 1.8 1-.6.6-.6 1.8 0 2.5-.4.1-1-.1-1.2.1.1.1.3.1.3.2-.4.5-1.2.6-1.6 1.2-.6-.1-1.1 0-1.1.6 0 .2.2.3.2.6 1.3.6 2.2 0 3.4-.3 0 .7-.6.9-1.3.9.1.5.6 1.2 1 1.6.7.6 1.7.8 2.9.9.1.7.7.9 1.2 1.2.4 1.6 2.2 1.6 3 2.7-.4-.1-.4.3-.7.3.1.6.5.9.6 1.5 2.9 1.4 8 .7 10.3-.9.8-.1 1.5-.3 1.8-.9.4.2 1.3.1 1.7-.1.5-1 0-1.8.5-2.9-.3-.2-.8-.2-.9-.6.4-.2.1-.6.1-1 .4-.1.9-.7 1.2-.4-.1.4-.6.4-.8.8 0 .8.9.6 1 1.4-.4.3-.2 1.1.3 1.1.3-.1.5-.4.7-.7.4.3 0 .7-.2 1 .2.9.7 1.5 1.2 2-.1.4.1.5.1.9.9.7 1.4 1.9 1.7 3.3.5.5 1.2 1.2 1.2 1.8-.3.1-.3-.2-.6-.1-.2 1-1.4.9-1.3 2.1-.5.1-.7.5-.9.9.5.5.3 1.1.6 1.6s.9.9 1.2 1.4c.2.3.1.9.6 1-.2 1 .3 1.2.2 1.9-.1.8-.9 1-1 1.5 0 0 .6.5.1.4-.5.3-.2-.3-.8-.2-.5.3-1.1.5-1.6.8.8.5 2.1-.1 3 .2.1.4.2.4.1.9.4 0 .8.1 1-.1.2-.1.1-.5.5-.6h.6c.3-.8 1.8-.4 2.1-1.2-.2-.3-.6.2-.7-.1.2-.4.6-.8.9-.9 1-.4 2.1-1 3-1.5.3.3.3.4.2 1 .5-.1.6-.8.8-1.2 1.1-.7 2-1.5 3.3-2 .2.3.6.3.7.8-.3 0-.5.2-.4.6 1 .2.2 1.7 1.5 1.7.1-.2-.3-.5 0-.6.6.2.6-.1 1-.2 0 .1.1.1.2.1-.1.8.5 1 .8 1.5 1.2-.3 1.3-1.4 1.8-2.3.4-.1.6.1.7.3-.1.3-.5.4-.5.9.4.1.9.1 1.3.2 1.5 1.5 2.4 3.5 3.5 5.3.7.2 1.7.7 2.5.2.2-.5.6-.9.8-1.4-.4-.1-.7-.5-.6-1.2-.7-.1-.7-.9-.8-1.6.5-.1.6-.4.8-.8-.3-.3-.2-.6-.1-1 1.1-.3 1.4-1.2 2.1-1.9.3.5-.3.8-.1 1.8-.6-.1-.6.3-.6.8.9.4 2.1.6 2 2 .9 1 2.9.3 3.6-.2.5.7 1.3-.1 1.8.3.1-.2-.1-.7.1-.8.3.8.5.6 1.1.8.1-.5-.3-1.4.3-1.3s-.3 1.2.3 1.3c.2-.1 0-.7.2-.8 0 .8 1 .8 1.3.7-.4.8-.8 1.5-1.8 1.7-.4.9-.8 1.8-.7 3.3.3.5.8.8 1.1 1.2-.5.1-.7-.1-.9-.3-.7.9-.7 2.1-.9 3.5s-.7 2.7-.8 4c.7.1 1.5.8.9 1.6-.3-.3-.4-.5-.2-1-1.2 0-1.5.9-2.5 1.1-.2.2-.3.5-.5.8-.4.3-.8.5-1.1.9-.2.2-.7.2-1 .3-1 .5-3.4 3.6-3.7 4.6-.4 1.1.4 1.6.6 2.5-.8.3-2.1.3-2.1-.7.4 0 .7-.1.8-.4-.7-.3-1.1.5-1.5.8-.8.4-1.4.9-2.2 1.2-.3 1-.7.7-1.1.7s.3.4-.1.5c-.1-.1-.3-.2-.6-.1-.8.7-1.9 1-3 1.5-.7.7-1.1 1.7-2.5 1.8-1.1 1.2-2.5 2.1-2.7 4.3-.4.4-.7.8-.9 1.5 0 .2.3.1.3.2-.1.3-.4.4-.3.8.9-.5 1.7.5 2.5.8-.4.2 0 .7-.3.8-.2-.3-.8-.5-1-.5.3-.3-.2-.7-.5-.9-.6.4-1.8.2-2.2-.2.1-.8-.6-.6-.6-1.3 0-.3.6.1.4-.3-.3-.1-1 .3-1.5.5.1.3-.5.5-.8.6-.1 0-.2-.2-.3-.2-.4-.1-.8.3-.9 0 .2-.5.8-.1 1.2-.3-.5-.8-1.6.1-2.5 0 .1.3-.2.2-.3.3-1.4.3-2.4 1-3.8 1.3-.4.5-.9 1-1.7 1.1-.1.8-1.1.9-1.5 1.2-.4.4-.4.7-.7 1.1-.6.8-1.4 1.5-2.1 1.9-.2.9-.7 1.5-1.5 1.8-1-.6-1.6.3-2 .8-.3-.8-1.1.2-1.3.6.2.1.7-.1.8.1-1.1.6-2.3 1.2-3 2.1-1.4-.1-2.4-.2-3.7 0-.3.5-.7.8-1.2 1-.3.1-.3-.2-.6-.1-.4.4-.9.9-1.6 1-.5-.8-1.5-.3-2 .1-.2 1.3-.7 2.3-1.5 3.1-.6 0-1.3.4-1.8.9.1 1.4.8 2.9 2.7 2.8.8-.4 2.1-.4 2.6-1.1.1-.3.1-.7.2-1 1-.9 2.9-1.4 4.8-1.1.3 0 .6.3.9.2.7-.1 1.1-.7 1.7-.7.1-.6-.3-.9.2-1.1.4.3.6.7.6 1.1.4-.5.6 0 1.1-.4-.1.2-.1.3 0 .4.5-.1.6.2 1 .1-.1-1-.6-1.5-1.2-1.9-.2.3-.5.4-.9.5-.2-.1-.3-.2-.4-.5 1.2-.3 1.7-1.4 2.8-1.9-.1-.9-1.1-.9-1.6-1.3 0-.6.6-.6 1-.8.2.3.8.5.9 1 0 0-.2.3-.1.4.2.3.7.5.8.9 0 .1-.5.7.1.5.3-.9 1.6-.2 1.7-1.4.7-.1.4.8 1.1.6-.1-.9-.9-1.9-.2-2.6-.2-.6-.7-.9-1.1-1.2.2-.6 1.3-.4 1.5.1-.2.7.4.8.4 1.3-.4-.2-.4.1-.7.2.1 1.4 1.7.7 2.3 1.5-.6-.2-.8.7-1.5.4-.2 1.1.6 1.3.8 2 .7 0 .8-.6 1.2-.9 0-.5-.2-.8.1-1 .2.3.4.8.8 1 .3-.4.4-.9.3-1.7.1-.2.4-.3 0-.4 0 .5-.4 0-.7.1-.3.3-.4.6-.8.8 0-.8.8-1.1.2-1.9.2 0 .3-.2.4-.3-.2.8.5.7.7 1.1.4.1.3-.4.7-.3.1.3.1.6.6.6.1-.4-.2-.4-.2-.8.3.4.7.2 1 .2.3.1.3.5.7.6.5-.1.6-.5 1-.7 0 .3 0 .4.1.6.4 0 .4-.2.7-.2 0-.8-1.1-.7-1.5-1-.1-.1 0-.3-.1-.3-.3-.2-.8-.2-1.2-.2-.2.2-.3.5-.6.7-.1-.4-.7-.8-.4-1.1.4 0 .3.5.9.3.1-1.1 1.2-1.8 1.7-2.8-.3-.6.1-1.2.5-1.5-.5-.2.2-.8.3-1.1.2-.2 1.2-.4 1.6-.1-.1.8-.6 1.2-1 1.7.4.5-.1 1.1-.2 1.6.7.6 1.1-.2 1.6-.1 0 0 .2.3.3.3.3.1.4-.1.8 0 .5-.5 1.4-.6 1.9-1.1.2-.5.2-1.1 1-1 0 .3 0 .5.1.7.3.3.9.2 1.5.2.7-.4-.3-1.4.6-1.6 0 .5.4.6.3 1.2.3 0 .5 0 .7-.1-.1.9 1 .6 1.1 1.2-.1.2-.4.2-.7.2-.2 0-.1-.4-.4-.3 0 .1 0 .3-.1.3-.2-.2-.3-.5-.7-.4-.2.1-.2.4-.6.4 0-.1 0-.3 0-.4-1-.6-1.5.4-2 .9.3.9.1 2.2.6 3 .4-.2.4-.9.8-1.1.4.7 1.2.5 1.7.9.1-.4.4-.6.6-.9-.2-.4-.8-1.1-.8-1.3.9 0 1.2.4 1.8.7.4-.7.1-1 .2-1.6.4.3.7.1 1.3.1-.1.6.4.6.8.8.4.1 0-.5.1-.8h.3c.1-.5 0-.9-.2-1.3-.7.1-1.8-.4-2.5-.1-.1-.6-.7-.6-1.1-.7 0-.2 0-.3 0-.4.4 0 .4.3.8.2.1-.6-.4-.3-.4-.4.2-.4.7-.7.4-1 .6.4 1.3-.2 1.9-.2.3-.1-.2-.4.1-.6.1.1.3.1.6.1.5-.4.1-.8.2-1.2.4.3.8 0 1.5 0 0-.3-.1-.8.2-.8.5.1 1.1.1 1.3.4-.6.5-.2 1.4-.7 2-.1.3.5-.1.3.3-.1.2-.5.1-.7.2-.1.3.2.3.1.7.6 0 .8-.1 1.3 0-.4-.7.5-.8.6-1.3-.2-.8.5-1 .5-1.9 0 .5.4.3.6.5.1.5-.6.8 0 1 .2-.4.7-.6 1.1-.8 0-.7-.5-.9-.8-1.2.6.4.7-.8 1.5-.3.1.3-.3.2-.2.6.3.1.5.3.9.2.5-.3.3-.7.3-1 .2 0 .1.3.4.2.2-.1 0-.5.2-.6.3-.1.2.3.6.2.1-.4.2-.9.6-1.1 0 .3.4.3.6.1v.5c.5-.1.7.2 1 0 .3-.4 0-1 .3-1.1.4.1.4.8.9.8.2-.4.2-.3.6-.1.3-.4.4-1.1.3-1.8.4.4.5-.3.7-.5.8-.2 1.4-.6 1.7-1.2-.3-.4-.7.3-1 0 .3-.4.4-.5.1-.9h.4c0-1 .1-1.8.6-2.4.9-.1 1.1.5 1.9.5.2-.4.4-.8.3-1.5-.5-.3-1.2-.1-1.5-.1.2-.2.4-.4.6-.7.6.1.8-.4 1.3-.6.1.5.4.7.6 1 .5-.1 1.4-.2 1.8.1 0-.7.6-.3.7-.8-.2-.4-1-.3-1.2-.7-.1-1 .7-.5 1.2-.8.1-.5-.3-.6-.5-.9 0-.2.1-.3.2-.3 1 .2 1.3 1.8 2.4 1 .3-.2-.2-.5.1-.6.2 0 .2.2.5.1.1-.6.3-1.3 1.1-1.2 0-.3 0-.5.2-.6.2.3.2.8.7.8.2 0 .1-.3.5-.2-.3-.5.3-.4 0-.9.5.2.4-.2.7-.2.4.1.7.3 1.2.2.1-.3-.2-.3-.1-.6.3.1.5.6.9.3-.1-.4-.6-.4-.5-1 .3-.1.3.2.7.1.1-.4-.2-.3-.2-.6.3-.5.8-.6 1-1.1-.1-.4-.5 0-.6-.6.4-.1.6-.8.5-1.1.4-.5.9-.9 1.3-1.5-.1-.2-.5-.1-.3-.6.5.1.6.5 1 .7 0-.2.4 0 .6-.1.3-.4-.5-1.1.1-1.5.8.4 1.1-.3 2.2 0-.4-1.4.8-1.2 1.2-1.8.1-.5-.4-.3-.5-.7.4.1.1-.6.3-.7.4.4 1.4.2 1.4 1 .9 0 1.2-.5 1.5-1.1-.1 0-.3 0-.3-.1.4-.8 1.8-.6 2-1.6-.1-.1-.4-.1-.5-.3.5 0 .7-.4.8-.8.8-.4 1.3.2 2.3 0 .1-.2 0-.6.2-.7.3.2.5.5 1 .6.1-.5.7-.5 1.3-.6.1-.3-.3-.5 0-.6.3 0 .6.4.8.2.2-.3 0-.5-.1-.8.2.3.4.2.7 0s-.2-.5.1-.6c.5.1.5-.2.8-.3-.1-.6-.1-.7.3-.9 0-.5-.5-.3-.5-.9.7 0 1.1-.2 1.4-.7 0-.5-.7-.3-.7-.9.3 0 .4.2.8.1-.3-.5.4-.4.6-.7-.1-.8.4-.9.3-1.3 1.1.2 2.4 0 2.6-1 1.2-.1 1.5-1.1 1.8-2.1.2.2.6.1.8-.1 0-.6-.9-.3-.7-1.1-.6-.2-.9-.6-1.3-1-.7.5-1.5-.4-1.7-1.1-1.3.3-1.8.4-3.1.1-.4.1-.3.7-.9.7.1-.6.5-1.2-.2-1.4.2-.6.8-.5 1.1-.4-.2-.5-.6-.9-.3-1.6.7 0 .7-.7 1.5-.7-.3-1.5 1.9-.5 2-1.6 0-.5-.7-.7-.5-1 .5 0 1.1.1 1.5-.1.1-.4.2-.7.2-.9.6-.3.9-.2 1.5.1 1-.3 1.8-.5 2.7-1.1.2-.5.5-1.6.3-2.1-.2 0-.7.3-.9 0 .2-.1.5-.2.8-.3.7.5 1.7.1 2.3-.2.6-1.1 1.4-1.9 1.5-3.5-.4-.3-.8-.4-1.2-.1-.2-.1-.8-.4-.6-.6.3.3.3-.1.7-.1 1 .8 1-.7 2.1-.7.2-.8.9-1.2 1.6-1.5 0-.6-.8-.3-.8-.9.1-1 .8-1.4 1.7-1.6.4-.4.4-1.2 1-1.2.5-.1.8.3 1 1 .7 0 .6-.8 1.5-.6.2-1.1-.3-2-.8-2.9 1.1-.8 1.6-2.1 3.7-1.9.3-.5 1.2-.3 1.7-.6.4-.7.5-1.3 1-1.7.8-.6 2.1-.2 2.9-.9.1-.2-.1-.6.1-.6.4.2.5.6.8.9.8.2 1.5-.2 2-.4.2.5 1.1.7 1.7.4-.1.4.3.5 0 .8.7.2.8 1 1.8.9.6 1.6 2.9 1.1 3.8 2.1-.7 0-1-.4-1.8-.2-1.1-1.3-2.3.2-3.7.2-1 0-1.7-.4-2-1.6-1-.3-1.8.8-3 .9-.9 1-2.1 1.5-3.1 2.4-.9-.1-1.6 0-1.9.6-.5 0-.7.2-1 .3-.1.8.2.8-.1 1.5 1.3.5 1.4 1.3 1 2.9-.2.1-.5.2-.7.3 0 .8.1 1.8-.1 2.4-.4.3-1 .5-1.2 1-.7.2-1.1.7-1.5 1.2v.7c-.8.5-.6 1.9-1.2 2.6.2 1.1 1.3 1.2 1.9 1.8-.4.3-.3 1.5 0 1.9-.5.1-.7.5-1.3.4-.4.2-.3.9-.7 1.3-.3.4-.8.5-.8.9 0 .7.8.8 1.3 1.3-.2.1-.5.1-.6.4.2.2.6.2.9.3.2-.1 0-.4.2-.4.1.1.2.2.5.2-.2.2-.3.3-.1.7.5 0 .9 0 1-.3-.1-.2-.6-.1-.6-.5.4 0 .7 0 1-.1-.4-.6.6-.2.9-.5-.1-.4.1-.5.3-.6.8.5 1.4.6 2.5.4.2-.2-.1-.9.3-.9s.2.6.2.9c.3 0 .3.4.8.2 0-.3-.2-.2-.1-.6.2.2.4-.1.7-.2-.1-.8.2-1.2.7-1.3v.6c.3 0 .3.3.7.2.9-.5.9-1.5 1.2-2.4.5.3.7.1 1.1-.1-.1.6-.3 1-.2 1.8h.7c0-.4.2-.6.1-1h.6c-.1-1.1 1.1-1.2 1.1-1.9.3 0 .5-.1.7-.2.1-.3-.3-.5 0-.6.2.2.4 0 .7 0 0-.4.2-.3.6-.6.2-.3-.1-1 .5-.9.1.7 0 1.6 1 1.7-.2-.5.1-.4.3-.7.4.2.5.3.3.8.4-.1.9.4.9-.2 0-.4-.5.2-.4-.1 0-.3.2-.3.1-.7-.3-.2-.5-.4-.7-.8.6-.1.5.5.9.6s.2-.3.6-.2c-.1-.6-.1-.6.1-1-.3-.4-.9.1-.9-.6.2-.4.4-.7.6-1.1.2-.2.3 0 .6 0 .1-.5.4-.8.7-1.1-.2-.3-.7-1.2 0-1.3.1.6.2 1.2.3 1.7-.3.5-.6 1-.8 1.7.2 0 .2.3.6.2.2-.2-.1-.9.3-.9.1.2.1.5.5.4.6-.6.4-2.1 1.5-2.2 0 .4-.5.3-.5.8.4.3 1.2.5 1.7.1.2.2.4.5.7.7.4 0 .3-.5.8-.4.4.1.6.3.9.4.8 0 .8-.7 1.2-1 0 .5.1.7.6.7.7-.8.3-2.1 1-2.7.1.8.1 1-.2 1.6.2.2.6.3 1 .2-.2.3-.3.7-.5 1 1.5 0 3.6 0 3.8-1.8-.2-.3-.6-.3-.7-.3.2-.2 0-.4 0-.7-1.1-.1-1.1-1.4-2.3-1.3 0-.2 0-.3 0-.5-.3-.2-.4.3-.5 0 .3-.1.3-.5.5-.7-.1.5.2.5.3.8h1c0-.7.5-1.2.2-1.8.8-.1.1-1.1.6-1.6-.9 0-.9-.9-1.6-1.1-.3 0-.5.6-.7.2.1-.5.7-.5.9-.8.1-.9-.2-1.3-.6-1.7 1.1.3 1.7-.4 2.4-.4 0 .2-.1.2-.1.4.6-.2.7-.4 1.2 0 .2-.2.4-.2.7-.3 0-.2-.1-.2-.1-.5.5.1.5-.3 1-.2-.1-.5.2-.5.5-.7.1.4-.2.4-.1.8 1.1-.5 1.9-.1 3.1 0 .1-.3.5-.3.4-.7-.1-.3-.6-.2-.7-.5.3 0-.2-.8.3-.7.2.1.1.5.2.7 1.9.6 1.8-1.4 3.3-1.6-.4.3-.3 1-.9 1.1 0 .4.3.5.3.9-.3 0-.3-.2-.7-.1.3.6-.3.4-.3.9.3.3.4.7 1.1.6.3-.2.1-.8.6-.8.3.1-.2.5.1.7.4.1.2-.4.6-.3-.2.5.5.2.4.7-.3-.1-.8.2-1.1.4-.2-.2-.8-.1-.8.3.8.8 2.5 1 3.4.1.6.5 1.2-.5 1.5 0-.3.5-1.2.5-.9 1.2 1 .2 1.6-.6 2.1-.5 0 .3-.2.3 0 .6s.7-.4.9 0c-.9.6-1.9 1.1-3.4 1.1-.2.1-.2.4-.3.6-.4-.2-1.3.1-2-.2-.5.5-1.1 1-1.2 1.9.1.4.7.3 1 .6-.3.1-.6.2-.7.6 0 .3.3.3.3.6 1.4-.1 1.8-1.2 3.1-1.5.7.6 1.1-.7 1.9-.7-.1-.6-.7-.6-.8-.9.5.1.6-.2.9-.3 0 .2.2.2.1.4.7 0 1.8.3 2.5-.2.5.1.8.4 1.3.3.8 1.1 2.1 1.7 3.7 2 .3-.3.7-.6.8-1.1-.1-.3-.3.2-.4-.1.3-.2-.3-.7 0-.8.5.3.8 0 1.5.3-.3.3-.4.6-.1 1-.2.1-.5.6-.3.8.6.1 1.5-.1 1.8.2-.4.1-.6.4-.8.4.3.3.6.5.8 0 .3.5.9.5 1.3.8.7-.4 1.6.3 1.7 1.2.7-.1.3-.9.1-1.2h.7c0 .3 0 .4.1.6.8.1 1.2.6 1.7 1-.6 0-1.3-.1-1.8.1 0 .2 0 .4-.1.5-.3 0-.4 0-.6.1 0-.4 0-.8-.3-.9-.3.4-.2.9.1 1.2-.9.6-1.7 1.2-2 2.4.8 0 1.2-1 1.9-1.6.5-.4 1.1-.6 1.6-.9 0-.2.1-.4.2-.5.8-.4 1.4.4 2.1.5.6 0 1.3-.4 2.1-.6.9-.1 1.9-.3 2.9-.3.5 0 1 .2 1.5.1.9-.1 1.8-.6 2.7-.7.8 0 1.5.3 2.2.2.3.1.4.4.8.4 1.2-.3 1.8.2 2.8.3.4.1.9 0 1.2.1.6.2 1.1.8 1.6.9.6.1 1.4-.4 1.8-.6s1-.1 1.3-.5c.1-.3-.3-.5 0-.6.5.2.8 1.2.2 1.5 0-.2-.1-.4-.3-.3-.1.6-.4.5-1 .6v.7c1.7.8 3.8 1.2 5.3 2.1 1.7-.1 3 .6 4.4.4.8-.1 1.1-.7 1.8-.9.9-.3 1.7-.6 2.5-.9.2-.7.8-1.7 1.6-1.5-.8.6 0 1.7.2 2.4-.2 0-.4.1-.3.3 0 .3.4.3.6.4-.2.3-.4.5-.6.8-.5-.3.3-.6-.3-.7-.2 0 0 .5-.2.6-.2 0-.1-.3-.5-.2-.3.6-.9 1-1.2 1.6.9.7 2.5.8 3 1.9.5.2 1.1.4 1.5.6.9.5 2.6 1 3.5 1.6.1.1.3.1.3.1 1.3.7 2 1.8 3.4 1.6.2.1.3.3.5.5.8 0 1.1.4 1.7.6.5.9 1.7 1.1 2.1 2.1.1.3-.1.4 0 .9.5 1 2.1.9 2.1 2.4 1.8.9 3.4 2.1 4.9 3.3.2-.2.5-.4 1-.3.4.7.9 1.4 1.8 1.7 0 .3.2.6.3.8h1c0-.4.3-.4.3-.8-.1-.4-.5-.5-.6-1 1.2 0 .8 1.7 1.2 2.5.1-.4-.1-.7.1-1 .2.1.6-.1.6.1-.3.1-.5.7-.2 1-.5.4-.6.4-1.2.6-.1.6-.5 1.1 0 1.5-.2.2-.3.8-.2 1 0 .2.5 0 .6.2.2.9 1 1.1 1.6 1.7.2 1 .7 1.3.8 2 .4.1.5-.3.8 0 0 .2-.3.1-.2.3.2.2.2-.1.6 0 .1 1.1.8 1.6 1.5 2.1v.4c.4-.1 1 .3 1.3.6-.2-.1-.9 0-1.1.2.4.4 0 1 0 1.6.5.1.4.1.3.7.2.1.7 0 .7.3-.1.3-.5.3-.8.5.1.6-.1.9-.1 1.5.7.3 1.3-.2 2.1-.1.3-.7.4-1.4.8-1.8 0 .2.1 0 .3 0-.1.2-.3.3-.2.7.2 0 .4 0 .5.1.1.9.8 1.3-.1 1.8.1.2.7 0 .8.2-.4.2-.3.4-.9.2-.1.4.4.2.3.6-.5.4-.6-.4-1.2-.2v.6c.9 0 1.3.7 2 1.1.2.6.7 1 1.4 1.2 0 .2.2.2.2.3 0 .3-.2.2-.1.6h.8c-.2.2.1.4-.1.8.4.6 1 1.3.9 2 .9.9 1.2 2.4 2.6 2.9.2-.4.2-.9.6-1.1-.6-1 .1-2.9-.6-3.9.4.1.3-.2.5-.2.1-1.9-.4-3-.7-4.5.2.1.3.1.5 0 0-.6 0-1.1-.1-1.6.3.4.7-.1 1.3 0 .1-.7 1.1-.3 1-1.2.5-.3 1.5-.6 1.8-1.1 0-.1-.1-.4 0-.5.2-.2.6-.2.9-.2 0-.2-.1-.2-.1-.5.6.4.8-.4 1.3-.4-.1.3.1.4.1.7.8-.1 1.2-.8 1.6-1.3-.3-.2-.3-.6-.6-.8-.4-.1-.4.2-.8.1.4-.4-.4-1.1-.2-1.3h1.2c.1-.4.4-.7.9-.7 0 .6.3.5 0 1 .6.1 1.2.9 1 1.8.3.4 1.1.3 1.5.7-.6.1-1 .1-1.5-.1-.4.5-.9 1.1-.9 1.8.2.2.5.1.7.3-.6 0 0 1.2-.3 1.3-.3-.3 0-.9-.8-.9-.7.9-2.4-.3-3.3.7.1.3-.1.4-.1.7.6.3.9.9 1.2 1.5-.1.2-.6 0-.6.3.2.3.8.2.9.7-.3-.5-.3.3-.6.2-.4-.1-.8-1-.3-1.5-.4-.4-1-.2-1.6-.6 0 .2 0 .4-.1.4-.9-.6-1.5.7-2.1 1-.1 1.8 1.3 2.9.9 3.9.8 0 1.4.8 1.5 1.2-.5.1-.3-.5-.7-.5-.2.4-.3.9-.1 1.2-1.1.9 0 2.1-.2 3.7.3.2.4.3.2.7.5.2.7.8 1 1.2-.2.3-.4.8-1 .8 0-.1 0-.2 0-.3-.6.1-.8-.1-1.1.3.4.4.1.8.5 1.2.7-.2 1.2-.8 1.9-1-.1-.6.1-.9.2-1.2-.5-.2-.2-1.2.1-1.5.3.1.4.7.8.3.3-.4.3-1.1.4-1.3.2 0 .2.2.5.1-.6-.5 0-1.4.3-2.1-.3-.3-.5-.7-.5-1 .4 0 .3.5.8.3.2-.6-.3-.5-.3-.9.2 0 .3 0 .4-.1 0-.4-.5-.3-.4-.8.7.2.3-.3.7-.3.5.1.3.8.3 1.4.7.5 2.3.2 2.5-.6.5.8 2 .4 2.8.4.2-.6-.5-.3-.5-.7.6-.1 1.3-.1 1.7.3-1.2.1-2.2 2-.8 2.5-.4.1-.1.8-.3 1-.2-.7-.8-1.1-1.1-1.8-1.2.1-2.5.1-3.8-.3-.7.6.2 1.6-.5 2.1.1.5 1.1.2 1 .9-.3.1-.3-.2-.6-.1-.6.9-1.3 2.1-1.7 2.9-.8-.7-.9.6-1.2.8 1.6.5 2.6 1.1 3 2.8-.1 0-.1-.1-.3-.1.2.4-.1.7.1 1.1-.8.3-.9 1.3-1.6 1.7-.2.7-.1 1.3.2 1.8.4 0 .5.2.9 0 .2.5.3 1.1.9 1.2.2-.7 0-1 .6-1.3 0 .3.4.1.5.3 0 .5-.1 1.1.2 1.3.7-.2.8.1 1.6-.1-.4.5 0 .5.2.9-.7 1 .8 1.7.3 2.6 1.1.6 1.3 1.9 2.4 2.6 0 .3.1.5.2.8.6.1 1.1.7 1.8.3-.3-.4-.3-.9-.3-1.2.3.2.5.2.8 0-.1-.8-.2-1-.1-1.9-.3-.2-.7-.4-.9-.8.2-.4.3-.8.6-1.4.1 1 .3 1.7 1.1 2.3.4 0 1.1.1 1.3.6-.1.3-.6.3-1 .3.1.9 1.2.8 1.4 1.6.7-.3.9.2 1.3.3.5-.1.9-.1 1.2-.1.3-.8.2-1.6.2-2.5-.1-5.2.1-13.9.1-20.2 0-2.7.2-5.6-.3-7.1-.5.1-.7.6-.7.2z"/><path d="m159.4 299.2c.2 0 .1-.3.3-.3.2.2.4.2.7.3-.1.1-.2.3.1.2s-.1-.2-.1-.3c.1 0 .2 0 .2-.1.4 0 .3.4.8.4 0-.6.5-.1.7-.4-.1-.3-.4-.5-.9-.5 0 .1.1.4-.2.3-.1-.9-1.2-.9-2-1.1-.2 1-.3 1.2.4 1.5z"/></g></svg>