<svg enable-background="new 0 0 432 432" viewBox="0 0 432 432" xmlns="http://www.w3.org/2000/svg"><g clip-rule="evenodd" fill="#a72a22" fill-rule="evenodd"><path d="m43.9 91.2c.1.8-.4 1.7-.3 2.3.3 1.4 2.9 3 4.3 3.4 1.8 2.6 6.4 2.5 6.1 7.2 1.5.9 2.6 2.7 3.8 4.3 1 1.3 3.1 3.2 3.5 4.8.3.8.1 1.8.3 2.6.3 1 1.1 1.7 1.4 2.8-.2 1.2.3 2.9.6 4-.4.8-.4 1.6-.6 2.3-.2.8-.6 1.5-.8 2.2-1 4.2.2 7.3 1.5 10.5.9 2.3 2.3 4.5 2.3 6.8 0 1.4-1.2 2.9-1.2 3.8 0 1.5 1.6 2.6 2.2 3.8 2.6 2 4.8 4.1 7.2 6.5 1.2 1.2 2.1 2.5 3.1 3.8.9 1.3 2.1 2.8 3.2 3.7 1.4 1.1 3.2 1.5 4.4 2.8 1.6 1.7 2.2 4.2 3.4 6.1.8 0 1.2.3 1.8.8-.2 1.6 1.1 2.7 1.2 4.1.3 2.2-1 4-1.2 6.1 2.2.6 4.3.3 5.9 1.2 1.8 1.1 2.4 3.8 4.6 4.6.4.1.8.1 1.2.2 1.3.3 1.8.5 2.8 1.4-.9 1.1-.7 1.4-.8 2.9.5.6 1.6.7 2.8.6 0 .6 0 1.1.1 1.5 1.7 2.2 2.6 5.1 4.2 7.4-.7 1-1.3 3-1.2 5.1.1 1.4.6 3 .6 4.5 0 1.2-.3 2.3-.2 3.2.2 1.9 2.7 3.8 3.7 4.8.6-.4.8-1.4.8-2 .4 1.3.9 3.8 1.9 5.1 1.3 1.9 3.7 3.4 6.3 2.5 1 .9 2.6 1.2 4.6 1.1.9.6 1.7 1.5 2.4 2.5.6.9 1.5 2.1 1.7 3.2.4 2.7-1 5.4-1.2 8.1-1 .6-1.8 1.2-2.8 1.8-.3 2.7.1 4.6 1.1 6.3.6 0 1.3.2 2 .1.7 0 1.5-.5 1.7 0-.3.6-1.3.2-2 .3s-1.4.3-2 .3c-.3 1.1-.1 2.7-.1 4 2.6 3.6 7.1 5.2 9.5 8.9.1 1.4 1 2 1.4 3.2.7.3 1.6.5 2.3.8 1.2 1.5.9 3.5 1.7 4.9.5.8 1.6 1.6 2.3 2.3.8.8 1.6 1.4 2.2 2.5-.1.8.3 1.2.1 2 1 1.6 2.5 2.4 4.2 3.4 2.2 1.3 3.5 2.6 4.4 5.1 1 .6 1.2 1.5 2.3 2.2 1.6 1 4.5 1.3 4.8 3.2.2 1.3-1.1 3-1.1 4.3.2 2.6 2.7 3.1 4.5 4.9 1.7-.8 3.1-.1 3.9 1.2-1.1.2-1.8.8-1.5 1.8.2 1 1.1.9 2 .9-.3 1.6-.5 2.8-.8 4.3-.1.5-.5 1.1-.5 1.4.1.7 1.1 1.5 1.4 2.5.3 1.2-.3 2.7-.2 4 .1.7.7 1.3.8 2-.5 1.8-1.3 4-1.2 5.8 1.3 1.1 3 .7 4.1 1.8 1 1 1.2 2.5 2.3 3.5 4.7-1.5 12.5-1.2 16.8.2 1.5.5 3.1.9 4.3 1.4.6.3 1 .8 1.7.9.8.1 2.2-.3 3.1-.5 1-.2 2-.8 2.9-.8 1.9 0 3.8 1.4 5.2 2.2 1.7.9 3.1 2.1 4.5 3.1.6.3 1.4.4 2 .8.5 1.1.5 2.5 1.1 3.5.5.9 2.8 3 3.5 3.4 1.1.5 2.6.4 3.8.9.6.3 1 .8 1.5 1.1 2.1.9 4.6.7 5.9 2 .3-.7 1.4-.5 2-.6 2.4-.4 4.8-.7 7.4-.6 2.5 1.5 3.6 4.3 4.8 7.1-.1 1.2-.8 3.6-.3 4.9.2.6.1.8.9.6 1.2-.2-1.2-1.1-.5-1.4 1.7.2 1.9 2.1 3.1 2.8 1-.3 2.6-.2 2.6-1.5 0 .8 0 1.5.3 2 .2-.6.3-2 .8-2.5 1.1-.9 3.8.2 4.8 1.1.9.8 1.5 2 2.5 2.9 1.2 1.1 2.8 1.8 4.3 2.6 1.5.9 2.5 2 3.9 3.2 2.7 2.4 5.7 4.1 7.5 6.6 1.2 0 3.2.2 4.5.6.4 1.2-.6 2.5-.3 3.8.1.5 1 1.2 1.4 2 1.2 2.1 1.7 4 2.4 6.8.4 1.7 1.1 3.4 1.1 4.8 0 .5-.4.9-.5 1.4 0 .2.2.6.2.9.1 2 .7 2.7.9 4.3.1.8-.2 1.8 0 2.2.4.9 3.1 1.2 3.2 2.2.5 1.3.6 3 1.2 4.1 1.8.1 3.3-.6 4.9-.8 3.7-.3 7.5-.8 11.4-.6 2.7.1 5.5-.5 8.5-.8 8.3-.9 17.2-1.6 25.5-2.5 10-1 19.9-1.4 29.7-2.6 2.2-.3 4.3-1.1 6.8-.8 1.3-.7 2.4-1.7 2.6-3.5 1.3-.2 1.8-1.1 2.3-2-.4-1.5-.6-3.1-.3-4.8-.9-.9-.9-2.1-2-2.6-1.2-.6-2.6.5-4 0-.6-.2-.9-1-1.2-1.4-.4-.5-.8-.8-1.1-1.5.7-1.8 1.3-3.7 1.1-6.5-.7-.4-1.3-1.1-1.7-1.9.4-.9.3-2.2.3-3.5 1-.3 1.9-.6 2.9-.9.8-2.1 1.9-3.8 3.4-5.2.1-4.7.3-11.2 0-16.4 1.7-1.4 3.6-2.7 3.8-5.5 1.8-1.5 3.8-2.9 6.2-3.8 1.3-1.4 2.3-3.3 4.6-3.7-.3-.7-.6-1.3-.9-2-.4-.6-.8-1.2-1.1-1.8-2.4-1.7-4.5-3.7-7.2-5.1.1-2.2-.4-3.8-1.4-4.9-.2-1.7-1.1-2.8-1.5-4.5-.9-.8-2.2-.7-2.8-1.9-.2-.3-.3-1.2-.5-1.8-.3-1.3-.6-2.4-.6-3.8-.7 0-.3 1.3-1.1 1.2-1.3-.8-.7-4.3-.6-6-2.5-1.5-4.4-3.8-6.5-5.8-2.1-2.1-4.4-3.9-6.5-6-6.2-6.2-12.6-12.2-18.8-18.3-4.1-4.2-8.3-8.2-12.6-12.1-2.2-2-4.8-3.8-6.5-6-.4-.5-.6-1-.8-1.7-1.9.2-2.6-1.7-3.7-2.8-.5-.3.6-.6-.2-.6-2.3-.6-3.6-2.1-4.5-4-.4 0-.5.6-.9.2-2.1-2-4.3-3.8-6.5-5.7s-4.4-3.8-6.1-6.1c-1.5-.3-2.3-1.7-3.4-2.6-7.8-7.1-15.8-13.8-23.5-20.9-2.2-2-4.3-4.1-6.6-6s-4.6-3.8-6.9-5.8c-20.1-17.9-40.6-35.6-61.5-52.6-1.7-1.4-3.7-2.8-5.1-4.5-.5-.7-.8-1.4-1.4-1.8s-1.5-.4-2-.9c-.5-40.7-.3-82-.2-122-1.6-2.1-4.8-1.4-7.2-1.4-8.7 0-17.4 0-25.8 0-11.4 0-23.2.5-34.4 0-5.4-.2-11.2-.1-16.9-.3-8.6-.4-17.7-.2-26.4.2-11.4.5-22.7-.5-33.2.1-.1.6-.8 1.4-.9 2.2-.2.9-.1 2.2-.3 3.4s-.9 2.4-.8 3.1c.2 1.2 2.2 1.9 2.8 3.1.3.6.2 1.2.5 1.8.4.9 1.1 1.8 1.4 2.6.4 1.2.6 2.6.8 3.8.2 1.4.6 2.8.6 4 0 3.7-2.5 7.2-1.1 10.8-2.2 1 .1 3.2.5 4.9.1.7-.3 1.3 0 2-.4.2-.3.7-.5 1.1-.9 1.8-2.4 3.6-3.5 4.6-.1.5-.2 1-.2 1.7-.8 1.1-1.2 2.7-2.3 3.5 0 .9-.7 1.8-1.1 2.6-.4.9-.8 1.9-1.2 2.9-1 2.2-2.7 5.3-1.7 7.8.4.8 1.3 1.7 1.4 2.6z"/><path d="m180.5 347.9c-.2 0-.3 0-.4 0-.1 1-1 1.4-1.5 1.4-.2.4-.4 1-.8 1.2 1.3.4 3.1.7 4.6.5-.2-.6.2-.7.3-1.1-.9-.5-1.9-.9-2.2-2z"/><path d="m197.1 352.5c1 .7 3 1 5.1.8 1.6-.1 2.2-.8 3.2-1.1 1.1-.3 2.3 0 3.2-.5.2-.5.5-.9.8-1.2-.3-.8-.7-1.6-1.5-1.8-.8.5-1.9.9-2.4 1.7-2.1.2-3.6-2.3-5.9-1.4-1.1-.8-3.7-1.3-4.1 0-.3.9 1.1.9 1.5 1.8-.5.6.2 1.1.1 1.7z"/><path d="m191.8 350.1c-2-.6-3.7 1-6.1.6-.5.4-.9.8-1.2 1.2.5-.1.6.2.8.5.6 1.2 2.4 2.9 3.7 3.1 1.2.1 2.4-.8 3.7-1.2.7-.2 1.3 0 1.8-.5-.1-.6-.7-.8-.3-1.5-1.6-.1-1.8-1.4-2.4-2.2z"/><path d="m251.9 379.4c-.8-1.5-1.9-2.7-2.9-4-3.3-.1-5.2-3.9-8.1-2.5.4 1.5 1.6 2.2 3.2 2.5 1.2 1 1.3 3.1 2.2 4.5 1.4-.2 3.3.5 5.1.5.1-.3.2-.8.5-1z"/><path d="m212.8 382.9c-1.3-1.7-4-1.9-5.7-2 .3.3.6.6.3 1.1 1.1 1 3.9 2.7 5.4.9z"/><path d="m244.8 393.9c0 .3-.5.1-.8.2-.4-1.5-1.3-3.3-2.9-3.1-.4 1.2.2 1.4.6 2.5.7 1.6.8 2.4 1.5 3.7 1.2 2 2.4 3.3 4.5 4 .4-.5 1.6-.2 2.2-.5-.5-3.6-4.2-3.8-5.1-6.8z"/><path d="m381.4 316.2c-.9.5-1.5-1-2-.8.4.3.6.9.9 1.2.6.2.8-.1 1.1-.4z"/></g></svg>