<svg enable-background="new 0 0 432 432" viewBox="0 0 432 432" xmlns="http://www.w3.org/2000/svg"><path clip-rule="evenodd" d="m11.5 336.2c.1-.1 1.9.1 3.1.3 31.4 3.3 63.7 6.3 94.6 9.6 32.7 3.4 65.5 6.5 97.6 9.9 16.3 1.7 32.6 3.3 48.9 4.8 48.8 4.6 98 10.2 146.6 14.8.1 0 .1-.1.2-.1 6.1-95 12.5-189.6 18.5-284.6-3.8-.5-7.6-.8-11.6-1.2-4.1-.4-8.3 0-12.6-.2-8.3-.4-16.7-.4-24.9-.9-8-.5-16-1-24-1.7-8.1-.8-16.3-1-24.4-1.4-48.7-2.1-97.1-6.1-142.7-11.6-30.5-3.6-60.6-8.4-89.4-13.5-14.6-2.6-29.2-5.8-44.8-6.7-.1 0-.1.2-.1.4-11.4 93.2-23.8 186.5-35.1 279.5-.2 1.4-.8 2.9-.5 4.4.2-1 .1-1.5.6-1.8z" fill="#a72a22" fill-rule="evenodd"/></svg>