<svg enable-background="new 0 0 432 432" viewBox="0 0 432 432" xmlns="http://www.w3.org/2000/svg"><path clip-rule="evenodd" d="m118.8 139.3c6 91.7 11.7 182.8 17.7 274.5 48.9 1 96.7 2 145.5 3 .3-.9-.7-.6-.6-1.3 1-.2.1-1.4 1-1.8 1.4-.6 2.1 1.6 3.2 2.2.4.2.9.2 1.4.3 1.8.5 3.8.9 6.1.6 1-2.7-.2-5.4-.3-8 0-.9.2-1.8.2-2.7 0-2.3-.3-4.5-.2-6.9.1-2.3.7-4.5.5-6.2-.2-1.3-.9-2.4-1.1-3.7-.4-2-.3-4.2-.5-6.4-.2-2.1-.9-4.2-1-6.1-.1-1.4.5-2.8.3-4.2-.1-1-.7-2.1-.8-3.2-1.1-.4-.9-1.5-1.9-1.3-1.5.3-1.3 2.8-1.3 4 0 2.1.9 4.4 1 5.6-1.1-.1-1.8-.8-2.9-.6-.7.1-2.6 2.1-2.7 2.7-.2.8.6 2 .5 3 0 .3-.4.7-.5 1-.1.4-.1.9-.5 1.1-.7-1.4-1.7-2.3-2.5-3.5-.7-2.6-2.3-4.2-3.4-6.4-2.7-.2-4.5 0-6.2.8-1.6.8-2.5 3.2-5.1 2.7-2.2 1.5-3.9 3.4-6.6 4.5.4 3-1 5-2.2 5.9 0-2.4.1-4.9-.3-6.9.8-.3 1-1.1 1.6-1.6 3 .5 3-1.5 1.8-2.9-3.6-.1-6.6-.9-10.4-.8-.7.3-1 1-1.9 1.3-1.5.4-3.8-.2-5.6-.2-.3-1-1.2-1.4-1.3-2.6 1.9.3 3.7-.3 5.4-.3.6 0 1.3.2 1.9.2.7-.1 1.4-.5 2.1-.6 1.9-.3 4 .4 6.1.3 1.9-.1 3.6-.6 5.6-.3 1.9-1.6 4-3 5.3-5.3 2.6.3 4.4-.5 6.5-.6 1.3-.1 2.8.1 3.7-.2 1.7-.5 2.8-2.2 3.8-3.2.4-.4 1.1-.6 1.1-1.3-1.4-1.4-4.5-1.1-7.3-1.1-3.7-1.5-5-5.4-9.9-5.7-.2-.8-1-.9-1.4-1.4.6-.2.7-.9 1.1-1.3 1.9.2 3 1.9 4.6 2.6.8.3 1.7.3 2.4.6 1 .5 1.7 1.7 3 1.3 1.3-1.8.1-4-1-5.3.1-1.2-.1-2.3-.7-3.2-1-1.7-3.4-2.5-2.9-4.5 1.3-.8 2.4 1 4 1.1 1.1.1 2.7-.6 4.5-.8 2.5-.3 4.9.8 5.6-1 1.1 1 2.3 1.7 2.5 3.2.6 2.8-.1 6.3-.5 8.5-.2.9-.6 1.7-.6 2.4-.2 2.5.9 3.6 1.8 4.9 0 .6-1.1 1.6-.3 1.9.8.2 1.7-.4 2.2-.8s1.3-1.2 1.4-1.8c.4-1.8-.9-3.9-1-5.7.6-2.2.7-4.9 0-7.7-.2-.8-.7-1.5-1-2.2-.8-2.7-.9-6-1.4-8.9-.2-1-.5-2-.6-2.9-.2-1.4.1-2.9 0-4.6-.2-2.9-.3-6.2-.5-9.1-.2-2.8-.1-6.1-2.4-7.2-1.6.5-1.5 2.8-2.5 3.8-2 .2-4.3.1-5.8.8-2.2-1-4.5-.9-6.4-1.9-.8-.4-1.5-1.1-2.2-1.6-2.4-1.6-4.6-3.2-7.7-4-1.6-1.9-3.8-4.2-5.4-6.2-.6-.7-1.1-1.4-1.8-2.1-.9-1-1.8-1.8-2.5-2.7-.5-.7-1-1.7-1.6-2.7-1-1.7-2-2.7-1.6-5.1-4.3-3-7.8-7-11.7-10.9-1.1-1.1-3.1-2.8-3.5-4.2-.5-1.6-.4-5-.3-6.5.1-1.6 1.1-3.1 1.3-4.6.2-1.7-.2-3.7-.6-4.6-1-2-4.4-4-4.8-6.2-.3-1.3.1-2.5-.3-3.7-.4-1-1.5-2.2-2.4-3-2.8-2.9-5.4-5.3-8.5-7.8-.9 0-1.4-.5-2.2-.6-1.4-1.9-3-3.5-4.3-5.4-.2-3.3-1.2-7.3-.8-10.9.1-1.1.7-1.9.5-3s-1.4-2.1-1.8-3.4c-.2-.7-.3-1.7-.5-2.6s-.7-1.7-.8-2.4c-.1-1.2.3-2.9.6-4.1s.9-2.5 1.3-3.5c.9-2.3 2.5-4.4 2.9-6.7.2-1.4.3-3.5-.3-5-.3-.7-1.2-1.1-1.3-2.1-.1-1.1 1-2.3 1-3.5-.1-1.1-1.3-2.2-1.8-3.5-.5-1.4-.5-3-.8-4-.6-1.9-3.1-4.4-4.5-6.5-.7-1.1-1.4-2.4-1.9-3.5-.6-1.4-1-2.8-1.6-4-.6-1.1-1.2-1.5-2.1-2.4-.6-.6-1.1-1.2-1.6-1.8-.9-.9-2.6-2.5-3.5-3-.7-.4-1.6-.4-2.2-.6s-1-.9-1.6-.6c.3.6-.3 1.8-.6 2.4-1.3-1.4-3-2.3-4.2-3.7.2-1.1 1.2-2.2 1-3.5-.1-.8-1.1-1.3-1.7-2.1-.6-.7-1.3-1.8-1.5-2.4s.1-1.3 0-1.9c0-.1-.2-.3-.3-.5-.8-2.3-3.4-4-2.4-6.9-1.5-1.2-2.7-2.8-3.3-5-2.6-2.7-5.2-5.5-8.6-7.5-1.1-1.6-2.8-2.6-3.8-4.1.2-2.9-.2-7.3.6-10.9.6-1.1 1.8-1.8 2.4-3.2.8-2.1.4-4.7 1.6-6.5-.5-3.1 1.1-5.4 1.3-8.3-1.6-2.3-3.4-4.1-5.7-6.1-1.8-1.6-5.4-3.6-5.9-6.1-.1-.5.1-1.5 0-2.2-.1-1.1-.3-2.2-.2-2.9.4-2 2.9-3.9 4.3-5.4 1.7-1.9 3.6-3.4 5.1-4.8.6.1.9-.2 1.3-.3 3.6-3.2 6.2-7.5 9.4-11.2-.2-.7-.1-1 0-1.8.7-1 1.4-1.9 1.6-3.4.8-.3 1.3-1.2 1.9-1.9s1.4-1.3 1.7-2.1c.3-.7.2-1.6.5-2.4.1-.4.5-1.2.8-1.8.8-1.8 1.7-2.5 2.7-4 .6-.9.9-1.8 1.4-2.7.6-1 1.9-1.8 2.7-2.9.3-.4.4-.9.6-1.3s.6-.7 1-1.1c1.7-1.9 4.2-5.1 6.1-6.1 1.4-.8 3.2-.7 4.6-1.4-.4-.9-1.5-1.1-2.4-1.6-1.1-.7-2.1-1.6-3.2-2.1-6.1-2.6-12.9-5-20.1-6.1-2.7-.4-5.7-.8-8.3-.5-2 .2-4.6.4-6.7.6-2.8.4-5.8 1.5-8.6 2.4-5.8 1.8-10.9 3.7-15.3 6.7-1.1.7-2 1.6-3 2.4-1.1.9-2.4 1.4-3.3 2.2s-1.7 2.1-2.7 3c-2.1 2-3.8 3.7-5.4 6.1-1.9 2.8-3.3 5.3-4.8 8.3 0 .9 0 1.7-.2 2.4-1.5-.1-2.8.1-4.1.2.1 15.5 1.5 30.8 2.4 46.1.7 15.8 1.8 31.1 2.8 46.3z" fill="#a72a22" fill-rule="evenodd"/></svg>