<svg enable-background="new 0 0 432 432" viewBox="0 0 432 432" xmlns="http://www.w3.org/2000/svg"><path clip-rule="evenodd" d="m62.6 311.7c8.4.5 16.9.4 25.4.8 8.4.4 16.8.5 25.3.7 16.8.5 33.8 1 50.8 1.1 4.3 0 8.5.2 12.8.2s8.5.3 12.8.3h130.9c8.8 0 17.3-.1 25.7-.5 24.5-1.2 49.7-1.7 74.7-2.7-.1-14.9-.7-30.5-.9-44.8 0-3-.1-6-.2-9-.3-6-.1-12.2-.4-18.2-.5-11.7-.5-23.8-.9-35.8-.2-5.9-.2-12-.3-18.1-.1-4.5-.3-9.2-.3-13.5 0-1.3.4-2.9-.7-3.8.1-.8 1.1-1.2.8-1.9-.6-.5-1.4-.6-2.2-.8-.7-.2-1.5-.7-2.2-.6-.8-.6-1.9-1.1-3.1-1.4-.5-.1-.5.6-.9.2-1-.7-2.2-2.4-3.3-3.1-.3-.2-.4-.1-.6-.3-.2-.3-.3-1.4-.5-1.7-.4-.8-1.4-1.4-1.9-2.2-.6-.8-1.3-1.8-1.4-2.7 0-1.5 1.6-2.2.9-4-1-.6-2-.2-3.4-.6-1.3-1.2-2.2-2.7-3.5-3.7-1-.7-1.5-.8-1.9-1.8-.1-.3-.2-.8-.3-1-.3-.4-.8-.5-1-.7-.6-.5-.7-.9-1-1.5-.4-.5-.9-.9-.9-1.7 1.2-.5 2.6-.8 3.3-1.8-.4-1.2 0-2.3.1-3.2.5-.7 1-1.4 1.6-1.9.6-.6 1.2-1.2 2-1.5.4-1.1.7-2.2 1.4-3 .9.3 1.4.7 2.2.5.1 0 .3-.4.6-.5s.9.2.8-.3c0-.5.2-.9.2-1.1-.1-.9-.8-.7-.9-1.6-.2-.5-1 0-1.5-.1.4-1.1 1.4-1.7 1.7-2.9-.9-1.1-2-2.2-2.6-3.4-.3-.5-.3-1-.7-1.4-.2-.2-.6-.4-.8-.7-.4-.4-.4-.5-.9-.7-.8-.2-2.5-.3-3.3-.1-1.1.3-1.3 2.2-2.6 2.5-.2.1-1.6 0-1.7 0-1.2-.3-1.6-1.9-2.4-2.4-.7-.4-1.3-.2-1.8-.6-.2-.1-.2-.4-.4-.7-.2-.2-.5-.3-.7-.5-.4-.4-.7-.9-1-1.1s-1.6-.7-1.8-.8c-.8-.3-1.6-.2-2.2-.5-.6-.2-.7-.5-1.3-.6-1.8-.2-3.8.1-5.7.1-5.2 0-11 0-16.5.2-7.3.3-15 .2-22.3.2-14.7 0-30.1.5-44.4.5-15 0-30 .2-44.8.2-15 0-30-.3-44.7-.3-7.4 0-14.8-.3-22.2-.3s-14.8-.3-22.2-.3c-7.2 0-14.3-.5-21.4-.7-7.2-.2-14.4-.7-21.5-1-7.2-.3-14.4-.6-21.6-.9s-14.3-.7-21.4-.9c-14.3-.3-28.6-1.5-42.8-1.8-.2 0-.1.2-.2.3-.9 25.2-2.4 50.7-3.6 75.7-.4 8.4-1 16.8-1.4 25.2-.7 16.4-2 33.4-2.6 50.2-.3 8-1 16.3-1.4 25-.2 3.8-.6 8.2-.8 12.5-.1 2.9-.2 6.5-.5 9.5-.1 1.2 0 2.5-.2 3.1-.2.5-.5.6-.9.9-.3.2-1 .3-.9.8 8 .6 16 1.1 24.1 1.5 8 .4 16.1 1.1 24.3 1.5z" fill="#a72a22" fill-rule="evenodd"/></svg>