<svg enable-background="new 0 0 432 432" viewBox="0 0 432 432" xmlns="http://www.w3.org/2000/svg"><g clip-rule="evenodd" fill="#a72a22" fill-rule="evenodd"><path d="m358.8 277.7c3-2.7 6.3-5.2 8.2-9 1.8-1 3-2.7 5.5-3.1 1-2.1 3.3-3 5.5-3.9-.8-.9-2.2-1.1-2.6-2.4 0-.5.5-.6.3-1.3-2.5-1-1.6-5.4-5.3-5.2-.5.3-.6 1-.5 1.9.6.7 1.7 1.5 1.3 2.6-1.2 0-1.8-.6-1.8-1.8-1 .1-1-.7-1.8-.6-1 0-1.8 1.3-2.9 1.5-.2-.4-.6-.5-.6-1.1.6.1.6-.2 1.1-.2-.4-.7.3-.9.3-1.6-.8-1.5-.6-4 1-4.5 0 1.6 1.1 2.2 2.3 2.7.8-1.5 1.5-3 2.1-4.7-.3-1.7-.7-2.4-1.3-3.5s-.9-1.8-1.6-2.4c-.9-.7-.9-1-1.5-1.8-.6-.9-1.5-1.5-1.8-2.3-.3-1-.2-2-.5-2.9-.6-1.6-2-3.1-2.1-5.2-2.3.1-4.4-.9-6.6-.2-1.1-.4-2-1.2-3.4-1.3-1.5 1-2.1 2.9-3.5 4-.2.3-.3.7-.5 1-.5 0-.9-.3-1.6-.2-.1-1.8-1.5-3-3.1-2.7-1.3-1.5-2.6-2.9-3.2-5.2.2-.6.5-1.1.5-1.9-.5-.9-1.9-1-2.7-1.6 0-1.7-.4-2.6-.8-4.2.2-.2.6-.2 1-.2.5-.8.9-1.3 1.3-2.3.2-.4.3-.9.5-1.3.3-.5.9-.9 1.1-1.3.6-1.2.4-2.7.5-4.5-1.1-1.6-2.8-2.7-3.9-4.5-.8-1.4-.9-3.2-1.9-4.7 1.4-.7 3.2-1.1 4.7-1.8.3-2.8-.1-6.2-.3-9-1.1-1-2.7.3-4.2-.3-1.5 2.1-4.1-.3-6.3.3-.7-.8-2.2-.6-3.1-1s-1.5-1.4-2.4-1.6c-.5-.1-.6.2-1 .2-1.3-1.2-2.9-2-3.2-4-.8-.7-1.7-1.4-2.6-2.1-.7.2-.4 1.4-1 1.8-1.6-.8-4.7-.2-5.5-1.8.5-1.4.3-3.4 2.4-3.2-.1-1.7-.5-2.6-1.6-3.5-.4-2.5 1-3.7 1.9-5.3.4.1.6.3 1.1.3.3-.5.4-1.4.3-2.3-1.2-.6-1.8-1.7-2.6-2.7.2-.7.4-1.3.6-1.9 1.5-.3 1.9-1.7 2.6-2.7-.5-1.3-1.5-2-2.4-2.9.4-2.9.1-5.8 0-8.7-.5-10.9.2-22-.3-33-.9-19.1-.1-38.6-1-57.2-.1-2.7.1-5.2.5-6.8-1.1-.2-1.5-.7-2.3-1.1-1.7-.9-3-1.5-4.5-2.3-.7-1-.9-2-1.6-2.9-.6-.7-1.5-1.2-2.1-1.9-.7-.8-1.7-2.5-1.9-3.5-.8-.4-1.2-1.3-2.6-1.3-1.7-1.9-4-3.3-6-5-2.7-1.6-6.7-2.5-7.4-5.8-1.7-.6-3.4-1.2-5-1.9-2.5 1.2-5.5-.3-7.9-.2-.6-.9-2-1-3.5-1-.8 1.2-2.7 2.7-1.6 4.7-.5 0-.2.5-.5.8-.7.7-3.3 1.6-4.2 1.5-.8-.1-1.5-.9-2.3-1.1-2.9-.9-5.1.9-8.4.6-.4.3-.7.7-1.3.8-.3.5-.2 1.4-.6 1.9-.5.7-3.2 1.9-3.9 1.9-1.4.1-2.9-.5-4.4-.3-2.7.4-5.8 2.5-8.2 2.4-2 1.4-4.4 2.3-7.3 2.9-2.2-2.2-6-2.7-8.2-4.8-.4-.1-.8-.2-1.3-.3-.4-.7-1.4-1.1-1.6-1.9-.4-1.4.3-3.6 0-5.3-.2-.9-.4-2.1-.3-3.1.1-1.2.6-2.2.8-3.2.2-1.2-.2-2.2.3-3.1-.6-.9-1.4-1.5-2.6-1.8-.4.4-1 .4-1.3.8-1.5-.9-3-1.5-4.8-2.1-.7-.2-1.4-.6-1.9-.6-1.1-.1-2.2.5-3.2.2-.4-.1-.2-.6-.8-.5-1.6 1-2.2 3-3.9 3.9-1.8 3.3-4.6 5.7-6.9 8.5-15.9 19.2-32.1 38-48 57.2-.8 1-1.9 1.7-2.1 2.6-.5 2.7-1.4 7.4-1.8 10.3-.7 5.1-2 10.3-2.1 15.2-1 1-2.4.9-3.6 1.4-2 1-2.7 3.2-4.4 4.4-3.3.2-5 2.9-5 6-.4.3-1 .5-1.6.6-.6 1.4-1.6 2.4-1.6 4.3-.8 1.1-1.4 2.4-1.9 3.9-.5.4-.7.5-.8 1.1 0 .4.3 1.6.6 2.1.7 1.2 2.7 2 2.9 3.1-1.2 1.3-1.3 3.7-3.4 4.2-.2.4-.6.7-.8 1-.8 1-.6 1.1-.6 2.3.6.2 1.7-.1 1.9.5-.3.9-2 1.8-2.3 3.1-.2.8.1 2.2.6 2.9-.3.6-1 1-1.1 1.8 1 .7 2.4 1 3.9 1.3.1 1.3 1.7 1 2.3 1.9-.5.5-.9.8-1.6.8-.3 1.9-.2 3.3-1.1 4.7-1.2.2-1.8 1-2.6 1.6-2.6.7-4.3 2.2-6.3 3.5-.3.9-.8 1.4-1.1 2.3-.7 0-.7.8-1.4.8.3.9.6 1.8.5 3.1.4.2 1 0 1.1.5 0 1 0 2-.5 2.4-.6-.2-1-.6-1.8-.6-.5.3-.7 1.1-1.5 1.1v.8c-1.2.4-1.5 1.7-3.1 1.8-2.6 2.5-7.3 2.8-8.7 6.5-2.6 1.8-5.6 3.2-7.3 6 .4.3.3.9.6 1.3-1 1.5-2.8 2.5-2.7 4.7 0 1.2.8 2.9 1.6 3.7 1.1 1.3 2.9 1.8 3.9 3.4.5.9.6 1.9 1 3.1-.3.5-.7.9-1.3 1.1-3.3-1.4-6.9-1.9-8.9-4.8-1.1 0-1.9.5-2.9.2-.4.6-.9.9-1.3 1.4 0 1.4 0 1.9-.3 2.9 1.2 1.8 0 4.4.3 6.9-1 1.1-1.4 2.6-2.4 3.7-.1 1.5-.4 3-1.3 3.7-.5-.5-1.2-.7-1.9-1-.4-1.5-1.9-1.9-2.3-3.9-.2-.7.3-.6.3-1.1-.3-.8-.8-1.4-1.4-2.1-.5-.6-1.1-1.7-1.8-1.9-1.2-.5-2.6.2-3.9-.6-.4.9-.7 1.8-1.3 2.6-1.9.1-3.8.2-5.2.8-.5 2.4.3 5.5.5 8.7.9 14.6 2.9 28.9 3.5 42.9 1.7 36.8 2.6 74.3 4.2 111.2 1 .9 1.6 2.1 2.1 3.4-.1.4-.6.3-.5 1 .4 2.6-.6 3.8-1.3 5.3.2.7.7.9 1.1 1.3.3 2.4-1.4 3.7-1.9 5.8-.2.7.2 1.4-.3 2.1.5 1.7 1.9 2.5 2.3 4.3 2.5.3 3.1 2.1 4.4 3.7 2.1 2.8 4.8 4.5 7.3 6.6-.1 1.2 0 2.3.5 2.9.7.1.9-.3 1.6-.2-.8.8-1.5 2.2-3.1 1.8-.4 1.2-.6 2.5-.8 3.9.9 1.1 2.2 1.9 3.5 2.7 1.2.8 2.5 2.1 3.9 2.6.7.3 1.4 0 2.1.2s1.4.6 1.9 1.1c.8-.2 1.3-.7 1.9-.6 1.2-2.8 3.3-4.7 3.9-8.2.7-.3 1.7-.4 1.9-1.3.2-.8-.5-.6-.5-1.1.8-1.3 1.7-2.6 1.3-4.8-.2-.9-.3-1.8 0-2.9.2-.7 1.1-2.4 1.5-3.1 1.5-2.7 3.9-4.3 7.6-3.5.8-.6 2-.8 2.6-1.6.3-1.6 1.2-2.6 2.1-3.7 2.4-.1 2.5-2.6 3.7-3.9-.2-1.8-1.9-3.4-1.6-5.5.2-1.4 2-3.9 3.7-3.9.2-.2.1-.8.5-.8.2.6.5 1.2.8 1.8.9-.4 1.3-1.3 1.8-2.1 1.4-.6 3-.4 4.5 0 .6-.3.9-.9 1.9-.8.4-.4.4-1.1 1.1-1.1-.1-.9-.8-1.8-1-2.9-.2-1.5.4-3.2-1-4.2-.6-.3-1.6 0-1.8-.6-.1-1.8.6-2.8.6-4.4 1.7-1.1 2.8-2.7 3.5-4.7 0-.7-.5-.9-.7-1.5.4-.5.8-.9 1.5-1.1.6-.2.5.4 1 .3 1.3-.8 2.6-1.5 3.5-2.6 1.6-.7 4.3-1 6.3-.8 1.6-.9 2.3-3.4 2.9-4.8 1.4.2 2.5.7 3.4 1.5-1.9 3.1-4.3 5.7-6 9 .2.7.8 1 1.1 1.6.8-.2 1-.8 1.8-1 .4.3.5 1 1.5.8.4-.4.7-1.1.6-1.9.7-1 2.2-1.2 3.1-1.9.8-.7.8-1.8 1.6-2.4.6.7 1.4 1 2.7 1-.1.8.7.8.8 1.5v1.3c1.8 1.3-.1 6.2 3.7 5.5 0-.7-.6-.8-.6-1.4 1.1-.5 2.5-1.8 3.5-.8-.1-.7.5-.7.3-1.5.9-.5 1.5-1.2 2.3-1.5.3-.1.6 0 .8-.2 1-.7 1.9-2.5 2.3-4 .3-1.3.4-2.9.5-4.5-.5 0-1 .1-1.3-.2-.3-.9-.7-1.6-1.1-2.4-.6-.5-1 1.2-1.5.8-.9-1.5.5-2.9.5-4.5 1.1-1.6 3.1-2.1 4.4-3.5 1.2-1.3 1.4-3.3 2.7-4.5.9-.3 2-1.1 2.6-1.1-1.6 1.9-2.8 4.3-3.2 7.4.1.3.9 0 1 .3-.7 1.8-.6 3.8-.8 5.3-.2.3-.5.4-.8.5.7 1.2 2.1 2.2 3.5 2.1.7 1.3 2 1.8 2.6 3.2 1-.3 1.4-1 2.4-1.3 0-.4 0-.9 0-1.3 1.2.9 1-1.7 1.9-1.8.4 0 .6 1.2 1.3 1.3.1-.1.2-.8.3-.3-.1.8 0 1.5.3 1.9.9 0 1.6-.3 2.3-.5-.5-.8.4-.8.5-1.5-.3 0-.6 0-.5-.3.7-1.5 1-3.4 2.3-4.3-.1-1.3 1-2 .5-3.2.7-1.1 1-2.6 1.4-4 1.2-.7 2.7-1.2 3.5-2.3.3-1.4-.8-2.3-.3-3.4.6.1 1 .4 1.6.5.7-.8-.1-3.3 1.3-3.4.6.2.9.7 1.1 1.3-.4.8-.7 1.6-1.1 2.4-.2.4-.9.3-1 .8.8 1.5.1 3.5.8 5 2.3.6 2-2.1 3.9-1.5-.1.5-.3.9-.3 1.5.8.7-.4 1.4.3 1.9 1.6-.4 2.2-2.4 2.4-3.5 1 .5 1.6-.2 1.9-.8 0 1 .9 0 1.3.5-.2.7-1 .6-1.3 1.1-.4.3-.5 1-.6 1.6-1.5 1.2-1.1 2 .6 3.1 1.6.9 3.5 1.8 4.5 0-.3-.3-1-.2-1-.8 1.7-.5 1.2-3.1 1.6-4.8 1.4-.6 2.1-1.8 4.3-1.6 1.5-1.3 2.3-3.2 4.5-3.7.5-1.9 2.2-2.7 2.4-4.8-1.4-.3-3.3-.1-4.2 0-.2-2.1 1.7-2.2 2.3-3.5-1-1.8.7-3.7 1.6-5-.1-1 .2-1.4 0-2.1.4-.6.8-1.3 1.4-1.6.1-2.8 2-3.7 2.6-6 2.3-1 5.2-4 4.2-7.9-.3-1.1-1.5-2-2.4-2.7-.2-1-.3-2-.6-2.7 1.1-.7 2.2-.2 3.4-.5 1.3-.3 2.7-1.4 3.9-2.1.6-.4 1.3-.7 1.9-1.1.5-.4.9-1.2 1.6-1.1-.2.8-1 1.2-.8 2.4 1.4.6 2.4-.5 3.4-1 0-1.2-.6-1.8-1.3-2.3 1-.3 1.1-1.5 2.1-1.8-.1-1 .2-1.7.3-2.6 1.3.9 1.2 2.2 2.1 3.4-.2 1.5-1 2.4-1.1 4-1.4 1.4-2.6 3-2.7 5.6.1.6.9.4.8 1.1 1-.2 1.8-.8 2.1-1.8.5-.3 1.3 0 1.6-.2.1-2.7 2-3.6 3.7-4.7.4.4 1 .6 1.1 1.3-.5.2-.9.3-1.3.6.2.8.8 1.3 1.6 1.6.1.5.8 1.2.5 1.6-.8-.2-.7-1-1.6-1.3-1-.3-2.3.3-3.4.3-1 .9-.8 2.4-1 3.9-.8-.2-1.1-.9-2.1-.8.1.8-.8 1.4-1.5 1.9-.3 1.1-.7 2.2-.8 3.5.9.3 1.4.9 2.3.8.8-.1 2-1.5 2.4-1.9.6-.1 1.1-.3 1.6-.5 2.8 1.7 4.8 4.2 9 4.5 2.2 1.5 4.7 2.6 6.3 4.7 1.2-.4 1.4.7 1.9.5.1-1.2.1-1.7-.3-2.6 1.2-.8-.1-2.7-.3-3.7-1.6-.3-2.6-1.3-2.3-3.5-.4-.2-.8-.4-1.1-.6.4-1.2 1.2-2 2.3-2.6-.2-.9-1.3-1-1.5-1.9.9-.9 1.4-1.5 2.7-.8.8-.3 1.1-1.1 1.6-1.6.6-.1.6.2 1.1.2.3-.4.8-1.5 1.1-1.3.7 1.4.3 2.8.8 4.4.6-.1.7-.7 1.3-.8-.1-2 .6-4.1-.7-5.2 1-1.3-.2-2.4-.3-3.9 1 .1 2.1-.7 2.7 0 0-.4 0-.8.3-.8 1 2.6-1.2 6.1.3 8.9 1.8-.3 2.7-1.4 3.4-2.7 1.5-.2 2.1-1.3 2.9-2.3 1.8-.9 4.6.4 6-.2.5-.6-.5-.7-.5-1.3.8-.3 1.3-.7 1.6-1.5.9.4 1.7 1.6 2.7 1.3.4-.7-.4-.5-.3-1.3.7-.7.7-2.1 1.3-2.9.9.8.9 2.4 1.8 3.2 0 .3-.4.2-.3.6.6 0 1 0 1.5.2.6-.8.8-2 1.8-2.4.5.2 1.3.2 1.9.3.4.7.5 1.9 1 2.6-.4.7-.8 1.6-.6 2.7.3 1.9 1.1 4.4 1.6 5.6.9.3 1.4-.5 1.6-.3.1 1 .5 2.1.2 3.1.9.4 1.2 1.9 2.7 1.1.1-.7.4-1.3.5-1.9.4-.3.8.2 1.1-.3 0-1.2.5-2.1 1-2.9.9 0 1.9-.1 2.4.3.2-.4.2-1.1 1-1-.8-1.4-1-3.4-1.9-4.7-.5 0-.5.5-1.1.5-.4-1-1-1.7-1.3-2.7 1.1.3 2.5 1 3.9.5 1 1.7.7 3.7 1.9 5.2.6 0 .7-.5 1.3-.5-.5-2.1.4-4 .6-5.5.2-.1 1-.4 1-.2-.4 1.1-.3 2.5-.5 3.7 0 .3-.3.6-.3 1 .1 1.4.9 1.8 1.6 2.7.8-2.1.9-4.9 1.5-7.3.5.6.6.3 1.5.2.4-1.5.8-3.9-.2-5 1.1-.7 1.7-1.8 1.9-3.4 1.3-.2 2.3-.7 3.2-1.3.2-.6.3-1.2 1-1.3 0 1.4-.7 2.6-.7 3.5-.7 0-.8.5-1.4.5.3 1.1.4 2.4 1.4 2.4 1.6 0 2-4.8 3.2-5.5.2 2-.2 4.3.8 5.8-.2.4-.3.8-.3 1.3.7.6 2.3.3 3.2.2.2-1.5 1.1-2.8 1.5-3.5 2.3-.3 3.8.4 5.2 1.1-.9.3-.7 1.7-.2 2.3.5.2 1.2-.7 1.5-1.3-.4-.1-1.3-.6-1-.8 1.9-.6 4.1-.1 4.3-1.9.1-.7-.6-1.5-.7-1.9 0 0 .3-.4.3-.5.3-1.3.2-1.9.8-2.7-.4-.3-.6-.8-.8-1.3.4-.3.8-.7 1.3-1 .1-.6-.4-.6-.3-1.1.7.3.8 1.1 1.6 1.3.7-.4.9-1.2 1.8-1.4.4.2 1 .3 1.1.8-.2.4-.2.9-.3 1.4 1 .6 2.7.6 3.1 1.8.8-.6 2.4-.4 2.9-1.3.5.4 1.3.6 1.6 1.1.3-1.1 1.3-1.4 1.5-2.6.5 0 1 .4 1.3.2.1-1.5-1.2-2.3-.2-3.4-.5-.8-1-1.7-1.8-2.3.8-.8 2.7-.6 3.5-1.5 1.1-.1 2.5.2 3.1-.3.1 1.7-.6 2.6-1 4.2 1.6.1 1.7 1.7 2.1 2.3.3.4 1.1.2 1 1 .8 0 1.1-.6 1.9-.5-.4-1.3-1.5-2.3-.3-3.5.4.1.9.1 1.1.3v2.1c2-.2 3.3-.3 4.4-.5z"/><path d="m353.2 280.1c-1.6 0-3.5-1.1-3.9.6.8 1.7 3.6 1.3 3.9-.6z"/><path d="m334.5 281.6c-.1.6-.6.9-1.1 1.1-.2-.2-.6-.3-1-.3-.4.3-.6.9-.5 1.8.8-.1.8.6 1.5.7.3-.3.4-.8.8-1 .6.2 1.9.1 2.3-.5-.7-.7-1.1-1.5-2-1.8z"/><path d="m333.3 285.8c.7.5 1.9.3 2.7.7.5-.8-.3-1-.5-1.6-1 .1-1.8-.2-2.2.9z"/><path d="m309.8 287.7c-1.5-.6-1.5 1.8-.3 1.6.4-.3.3-.9.3-1.6z"/><path d="m330.4 290.9c1.5.3 2.8 1.8 4.3.7-.1-2-2-2.3-4-2.4-.3.3-.3 1-.3 1.7z"/><path d="m310.4 289.6c-.1.3-.2.7-.5 1 .6.6.9 1.3 1.8 1.6-.1-.7.1-.9.2-1.5-.6-.2-.9-.7-1.5-1.1z"/><path d="m329.3 295.8c.6-.6.7-1.8 1-2.7-.7-1.1-1.9-1.7-2.1-3.2-.1 0-.3 0-.5 0-.1.9-.5 1.5-.8 2.1.7 1.1.7 2.8 1.3 3.9.4-.1.7-.1 1.1-.1z"/><path d="m325.4 292.2c0-.7-.4-1-1-1.1-.2.5.1 1.6 1 1.1z"/><path d="m321.4 291.6v1.1h1.1c.3-.4-.4-1.1-1.1-1.1z"/><path d="m321.4 295.6c.6-.1.9-.5.8-1.3-.3-.1-.4-.3-.8-.3z"/><path d="m226.6 297.4c.5-.1.5.3 1 .2.2-.3.6-.6.8-1-.3-.3-.5-.7-.3-1.1-1.2-1.1-2 .8-1.5 1.9z"/><path d="m307.9 297.9c-.7-.8-.8-2.1-1.8-2.6-.6 1.2-.5 2.5.3 3.4.9.1.7-.8 1.5-.8z"/><path d="m326.9 297.4c.2-.2.7-.3 1.1-.3-.3-1-1.2-1.4-2.1-1.8-.7.7.4 1.7 1 2.1z"/><path d="m285.5 295.8c-.1.5-.9 1.7.3 1.6-.2-.5.3-1.7-.3-1.6z"/><path d="m263.9 312.7c.6 1.8 3 1.9 4 3.4-.2.2-.2.4 0 .6 1.4-.1 2.3.2 3.4.5 1.1-.8 1.8-2 2.6-3.1-.3-1.1-1.2-1.6-1.9-2.3 1.7-2.3-.8-4.6-1.4-6.6.6-.2.8-.7 1.4-.8.7 1.8.2 3.7 1.3 5-.1.3-.5.3-.3.8 2.1 1.7 4-.6 6.4.6 1.8-1.1 2.5-3.3 3.4-5.3-.6-1.3-1.1-2.8-1.8-4-1.8-.3-2.1-2.2-3.7-2.7-.3-1-.9-1.7-1.8-2.1-1.2.7-2.4-.1-4 0 0-.4-.1-.5-.5-.5-.8 1.2-2 2.1-3.7 2.4-.2.7-.8 1.5-.3 2.4-1.3 2.2-3.4 3.6-3.1 7.4-1.7 1.2-.1 2.6 0 4.3z"/><path d="m285.3 302.5c1.4 0 2-2.4.7-2.9-.6.6-1.2 1.2-1.3 2.3.1.2.4.4.6.6z"/><path d="m223.9 315.7c.3-.3 1.1-.7 1.5-1.4.1-.3-.1-.7 0-1.1.4-1.6 1.4-2.6 1.1-4.2-.2-.9-.2-.6 0-1.4.1-.2 0-.6 0-.6.2-.5 1-.9 1.3-1.5.2-.3.8-2.4.8-2.4-.1-.8-.8-1.4-1.6-1.3.1 0-.1.5-.2.5-.4.3-2 .9-2.1 1.4 0 1.8-1 3.3 0 4.7-.6.9-1.5 1.4-1.8 2.6.9 1 1.1 2.7 1 4.7z"/><path d="m255.6 302c-.5 1.3-.4 3.2-1 4.5.5.8 1.2 1.3 2.6 1.3.3.3.9.9 1.3.7.4-2.4-1.1-4.5-1.3-6.3-.4-.2-.9-.2-1.6-.2z"/><path d="m262.6 307.4c.1-1.6 1.1-2.8.6-4.8-2.3.3-3.6 4.3-.6 4.8z"/><path d="m238.4 309.3c-.2 1.3 1 1.3 1 2.4.8.3 1.7.6 2.6.8 0-.6.5-.7.5-1.5-1.4-.6-2.8-2-4.1-1.7z"/><path d="m247.4 313.7c-.8-.2-1.4-.5-2.3-.6-.2-.8-1-1.1-1.8-1.3-.8 1.7-1.6 3.3-2.9 4.5 0 1.1.1 2.6.5 3.7-.8-.2-.6.6-1 .8-.3 3 2.9 3.6 5.5 2.7.4-.7.2-2.1.6-2.7-.6-.7-1.4-2.1-1.6-2.6.5.1.6-.2 1-.2 1-1 3-1 3.4-2.6-.8-.2-.8-1.3-1.4-1.7z"/><path d="m257.7 311.7c.1 1 .8 2 1.8 1.6-.1-.5-.5-.6-.3-1.3-.4-.2-.8-.4-1.5-.3z"/><path d="m275.3 312.4c.7.7 1-.1 1.8-.2-.1-.8-1.8-.5-1.8.2z"/><path d="m221.6 312.5c-.4.7-1 1.3-1 2.4.7.1.9-.3 1.6-.2 0-.7.1-1.6-.2-2.1-.1.1-.1-.1-.4-.1z"/><path d="m279.5 313.2c-1-.4-1.9-.7-2.1.7.3.3.9.4 1.3.6.1-.6.9-.5.8-1.3z"/><path d="m274.7 315.6c.5.2.7.6 1.5.5.4-1.2-.2-1.8-1.1-2.1-.4.3-.5.9-.4 1.6z"/><path d="m258.5 316.2c-.1.3-.3.6-.3 1 .6.1.9-.1 1.3-.2-.1-.5-.4-.8-1-.8z"/><path d="m252.1 320.3c-.5-.9-.8-2.8-2.4-2.1-.2 1.3.7 2.9 2.4 2.1z"/><path d="m257.9 318.2c-.1.6.1 1 .5 1.1.1-.2.2-.4.3-.6-.4 0-.3-.6-.8-.5z"/><path d="m259.8 318.5c.6.5.5-.6 0 0z"/><path d="m271 318.3c-.3 0-.6 0-1 0-.2.8.7.5.5 1.3.5-.1 1-.2 1.3-.5-.3-.3-.9-.2-.8-.8z"/><path d="m260.3 319.3c.2.1.4.2.8.2 0-.5-.4-.6-.6-.8-.1.2-.3.3-.2.6z"/><path d="m268.4 321.1c0-.7.4-1 .5-1.6-.7-.8-1.5.1-1.9.5.1.5.5.6.2 1.1z"/><path d="m247.7 319.9c-.2.3.2.9.5 1.1.5-.2.4-1.2-.5-1.1z"/><path d="m257.4 324.1c.4-.1.3.3.5.5.9-.9 2.1-.3 2.7.3.3-.2.8-.3 1.1-.5 1.5 1.5 4.4 1.9 4.4-.8 0-1.4-1.4-2.8-2.1-3.4 0 .2-.4.1-.6.2-.5.3-.4 1.2-1 1.5-.3-.2-.4-.8-1-.8-2.1-.2-2.4 1.5-3.9 1.9.1.5-.2.6-.1 1.1z"/><path d="m269 320.3c.2.6.8.7 1 1.3 0-.4 0-.7 0-1.1-.5 0-.5-.3-1-.2z"/><path d="m225.5 325.7c1.3.1 2.6-.2 3.5 0 .9-.9 2-1.3 3.4-.8.2-.4.2-1.1.8-1.1-.9-1.1-1.3-2.6-2.4-3.4-1.8.7-3.5 1.6-4.7 2.9-2 .6-3 2.3-3.9 4 1.6 0 2.3-.9 3.3-1.6z"/><path d="m278.2 321.1c-.4-.1-1.1-.7-1.5-.3.6.1.4 1.1 1.3 1 0-.4.2-.4.2-.7z"/><path d="m277.6 324.8c.7-1-.2-1.9-1.1-2.1-.5.9.2 2 1.1 2.1z"/><path d="m244.4 325.3c.1-.5-.2-.6-.3-1-1.1-.2-1.3.6-.8 1.1.5.1.7-.1 1.1-.1z"/><path d="m246 324.3c-.5 0-1.1-.1-1.1.3.3.3.8.4 1.1.6 0-.3 0-.6 0-.9z"/><path d="m248.7 324.6c-.1.2-.2.4-.2.8.4 0 .5.3.8 0 0-.4-.2-.7-.6-.8z"/><path d="m231.9 329c.6-.1.4-1 1.1-1-.2-.4-.4-.8-.5-1.3-1.4.1-1.6-1-2.9-1-.8 1 .7 2 1 2.9.8-.1.9.3 1.3.4z"/><path d="m257.6 328c0-.8-.2-.9 0-1.6-.8-1.3-1.8-.1-2.1 1 .2.4.5.5.5 1.1.7.1 1.2-.2 1.6-.5z"/><path d="m235.5 332.2c-.3-.8-.3-1.4-.5-2.6-.9.6-2.6.5-4.2.5-.9-1.1-1.7-2.5-2.7-3.5-1.2-.2-2 .2-3.1.8-.1.5-.3.9-.3 1.5 1.2.2 1.4 1.5 2.3 2.1-.4 0-.1.6-.2.8.8 2 3.7 1.9 5 3.4 1.4-.9 2.2-2.3 3.7-3z"/><path d="m245.8 328.8c0-.3.4-.3.6-.5-.2-1.1-1-.8-1.8-.8 0 .9.7 1 1.2 1.3z"/><path d="m248.4 337.2c.7-1.9 1.9-4.8.8-7.1-2.6-.9-2.3 2.4-4.4 2.6.2 1.9-.6 3-1.1 4.2 1.4.9 3.4-.4 4.7.3z"/><path d="m244.7 331.1c.1-.4-.3-.3-.3-.6-.5.1-.8.4-.8 1 .2 0 .4.1.5.2.1-.4.1-.8.6-.6z"/><path d="m229 335.9c0-.4.5-.4.5-.8-.3 0-.6 0-1 0-.5-.4-.1-1.1-.6-1.3-.1.4-.6.3-.5.8.3.7.9 1.1 1.6 1.3z"/><path d="m187.1 339.3c-.3 0-.5 0-.8 0 .1 1.4.3 1.5 0 2.9 1.1-.7 1.2-1.4.8-2.9z"/><path d="m164.6 341.4c-.3.9-.6 1.2-1.1 2.3-.3.5-.5 1.4-.8 1.9-.9 1.5-2.5 2.3-2.6 3.5-.1 1.3 1 2.7 2.4 2.4.5-1.9 1.1-3.8 1.3-6.1.6-1 1.4-2.7 1.3-3.9-.3 0-.3-.2-.5-.1z"/><path d="m189.4 345.4c.7-.4 1-.1 1.4-.2 0-1 0-1.9 0-2.9-1.6-.1-1.8 1.1-2.3 2.1.2.5.7.6.9 1z"/><path d="m185 345.4c-.4-.8-.4-2.1-1-2.9-.2 0-.4 0-.7 0 0 1.5-1.3 3.5 0 4.5.9-.3 1.4-.8 1.7-1.6z"/><path d="m237.4 349c.1.3.6.3 1.1.3.2-.5.5-.9.5-1.6-.2 0-.2-.2-.5-.2 0 .8-.9.8-1.1 1.5z"/><path d="m208.4 348.5c-.2-.3-.3-.6-.8-.6-.3 1-.4 1.7 0 2.7.9-.1.6-1.4.8-2.1z"/><path d="m192.3 351.4c.3.1.5.4 1 .3-.1-.8.5-1 .3-1.9-1.1-.1-1.1.8-1.3 1.6z"/><path d="m225.8 352.7c.3-.4.6-.8 1.1-1 0-.7-.3-.9 0-1.4-1.6-1.5-2.2 1.3-1.1 2.4z"/><path d="m194.7 351.5c.1-.4.9-.2.8-.8-.4-.2-.4-.8-1.1-.6.1.5-.2 1.4.3 1.4z"/><path d="m166 352.7c-1-.4-1.5.6-2.1 1.1.2 2 1.1 3.2 1.9 4.5 1.9-.9 1.8-4.6.2-5.6z"/><path d="m227.6 354.1c-.4-1.6-1.6-.5-1.9.6.7.9 1.6.3 1.9-.6z"/><path d="m139.1 354.9c0 .3-.2.4-.2.6.6.4.8-.8.2-.6z"/><path d="m127.5 361.7c1.5.1 1.7-1 2.1-1.9-.3-.3-.8-.5-1.1-.8-1 .6-.7 1.6-1 2.7z"/><path d="m192.4 360.4c.2.2.2.7.7.6.3-.6 1-.7 1.1-1.4-.7-.4-1.8-.1-1.8.8z"/><path d="m135.4 360.1c0 .8-.5 1-.7 1.6.6-.1 1.1-.4 1.3-1-.2-.2-.1-.7-.6-.6z"/><path d="m131.7 360.7c-1 1.3-2.9 1.6-3.2 3.5 1.8 2 3.3-1.2 3.5-3.2 0-.1-.2-.2-.3-.3z"/><path d="m126.2 364.8c0-.4 0-.8 0-1.1-.7 0-1.1.3-1.6.5.1.4.4.7.8.8.4 0 .3-.4.8-.2z"/><path d="m144.6 364.3c-.2 0-.6-.7-.8-.2 0 .2.6.6.8.2z"/><path d="m130.9 366.7c.4.3.4.9 1 1 .3-.3.5-.7 1-.8-.2-.6-.6-1-.8-1.6-.7.2-1 .8-1.2 1.4z"/><path d="m128.6 367.8c-.5-.1-.3-.9-1-.8-.4.2-.6.7-.5 1.4.4.2 1.3-.1 1.5-.6z"/><path d="m123.8 369.1c-.1.8.5 1 .6 1.6.6.2.5-.5 1.1-.3-.2-.9-.8-2.1-1.7-1.3z"/></g></svg>