<svg enable-background="new 0 0 432 432" viewBox="0 0 432 432" xmlns="http://www.w3.org/2000/svg"><g clip-rule="evenodd" fill-rule="evenodd"><path d="m223.1 292.6c.3.1.6.2.9.4h.2c.1 0-.2-.2-1.1-.4z"/><g fill="#a72a22"><path d="m404.1 144.7c.2.4.5.7.6 1.1s0 .8 0 1.2c.1.5.3 1.1.4 1.7.2 1.2.2 1.8.9 2.4.1.6.3 1 .5 1.5.2 1.8 1.3 3.3 1.1 5.1.5.4.9 1.2.6 2 2.2 2.6 2.8 6.8 3.2 11.1.8.8 1.9 1.3 2.1 2.7-.7.1-.5-.7-1.3-.5-.9 1.1.8 1.5 1.6 1.8.6 1 1.5 1.7 2.7 2.2.2.7.4 1.4.9 1.8-.1.6.3.6.2 1.2.1.4-.2.5-.2.9.8.9.9 2.5 1.7 3.4.2.4.1.5.2 1 .6.4.8 1.2 1.6 1.3.6-1.6-.4-2.5-1-3.8s-1.1-2.6-1.3-4.2c-.4-.4-.9-.8-1.4-1.2.2-.9-.7-1.6-.9-2.3-.1-.6-.2-1.1-.4-1.4-.3-.4-.9-.6-1.3-1-.3-.3-.3-.8-.7-.9-.1-2.4-1.1-3.6-1.8-5.2-.2-.4-.3-.9-.4-1.4-.4-1.2-.9-2.2-1.3-3.2-.5-1.4-1.1-2.7-1.5-4.1-.2-.7-.6-1.4-.7-2-.2-.7-.2-1.6-.4-2.4-.1-.4-.4-.7-.4-1.1-.1-.7.1-1.4 0-2-.1-.3-.3-.7-.4-1.1-.3-1.2-.5-2.2-.8-3.2-.2-1-.3-2-.5-3-.5 0-1 0-1.5 0-.2.7-.2 1-.1 1.4.1-.1 0 .1 0 .2z"/><path d="m404.1 148.3c.2-.2.3-.5-.1-.5-.1.1-.1.5.1.5z"/><path d="m406.3 155.5c-.2.6.2 1.5.8 1.7 0-.9-.3-1.4-.8-1.7z"/><path d="m406.7 157.9c-.3-.1-.5-.4-.9-.5.1.3.2.6.3.9.4-.1.6-.1.6-.4z"/><path d="m406.5 159.4c.1-.4-.1-.5-.2-.8-.2 0-.4 0-.6 0-.1.6.5.9.8.8z"/><path d="m417.7 183.9c-.5-1.1-.1-2.5-.5-3.6-1.7-1.1-3.1-2.8-5.5-2.9.6.8.8 1.9 1.7 2.3.5 1.5 2.3 2.2 1.7 4.5.6 1.2 2.4.9 2.6-.3z"/><path d="m425 196.5c0-.2-.3-.1-.2-.3-.2-1.9-.3-3.8-1.1-5.1-.1-.4.3-.4.2-.9-.8-1.1-1.2-2.7-2.2-3.6-.2.2-.4.4-.7.4.5.6.6 1.1.9 1.8.1.2.2.3.3.5.2.4.2.9.3 1.3.1.3.3.4.4.6.2.6.1 1.2.2 1.8s.5 1.1.6 1.7c.3 1.2.2 2.3.5 3.4-.5 1.7-.9 3.5-.8 5.8-.9 1.9-.3 4.9-1.5 6.6.1.6-.1.9-.2 1.3.4.4-.1 1.1.2 1.6-.6.7-.4 1.6-1.3 2-.8.4-2 .1-3.1.4-.3.3-.5.6-.6 1.1-.6.1-1 .4-1.5.7-.4 0-.9 0-1.1.2-.4-.3-1.1-.8-1.6-.7.1 1.2-1.3 1.5-1.6 2.7 1.3.5 2.8-.5 3.7-1.1 1.2-.1 3-1.1 4.3-1.1.4 0 .8.3 1.2.3.5 0 .8-.4 1.3-.1.5-.7.5-1.6.6-2.4.2-.9.5-1.7.6-2.6.2-.9.1-1.9.2-2.9.2-1.4 1.1-2.6.8-4 .2-.5.5-.9.6-1.5.1-.7-.2-1.4-.2-2.1 0-.3.2-.6.2-1s0-.7 0-1.1c.1-.5.4-1.3.4-1.6.3-.5.1-1.3.2-2.1z"/><path d="m367.7 210.4c0 .5.5.4 1 .4 0-.5-.5-.5-1-.4z"/><path d="m385.9 211.9c0 .5 0 .9-.1 1.3.4 0 .6.3 1 .3 0-.6-.1-.6 0-1.1-.4-.2-.5-.5-.9-.5z"/><path d="m415.6 214.1c.2-.3.1-1-.4-1-.3.5 0 .8.4 1z"/><path d="m417 213.3c-.3.1-.6.1-.5.4.2.1.5 0 .5-.4z"/><path d="m414.6 214.3c.1-.3-.1-.4-.1-.6-.3 0-.5 0-.6.1 0 .4.4.4.7.5z"/><path d="m378.1 219.9c.2.3 1.3.3 1.6.1-.2-.2-.3-.5-.5-.7-.3 0-.6 0-.9 0 .2.4-.2.3-.2.6z"/><path d="m406 221.5c-.3.2-.8.4-1.2.6-1.4.7-2.5 1.4-3.8 1.9-.2-.1-.4-.3-.8-.2-.3.1-.5.4-.7.5.1 1.2-.7 1.5-.8 2.5 1 .3 1.3-.7 1.8-1.2.3-.3.9-.5 1.4-.9.7-.4 1.1-1.1 2-1.1 1.2-.8 2.7-1.7 4.3-2.2.9-.3 1.9-.4 2.3-1.3-.6-.5-1.1.3-1.7.4-1.4-.6-2.1.5-2.8 1z"/><path d="m395.5 226.8c-.4.2-.4.8-.6 1.2-.4.7-1.3 1.2-1.4 1.8.3.2.8.1 1 .3 1.1-1.1 2.6-1.8 3.5-3.1-.6 0-1.1-.4-1.5-.4-.2 0-.9.1-1 .2z"/><path d="m385.4 231.1h1c.1-.6-.2-.9-.5-1.2-.2.5-.4.8-.5 1.2z"/><path d="m387.2 232.2c.3-.3.6-.6.6-1.1-.2-.3-.5-.5-.9-.6.2.8-.3.9-.4 1.4.3.1.3.3.7.3z"/><path d="m392.5 232.1c.3-.2.3-.7.5-1-.3-.1-.4-.3-.7-.3-.3.4-.4 1.3.2 1.3z"/><path d="m389 234.8c1.2-.4 1.8-1.3 2.7-2-1.5-1.1-2.3.8-2.7 2z"/><path d="m387.7 236.5c.4-.4.7-.9 1.1-1.3-1.6-.4-2.2 1.2-2.8 2.2.8.1 1.3-.5 1.7-.9z"/><path d="m385.7 238.1c0-.1-.1-.1-.2-.1-1.6.4-1.9 2.1-3.3 2.7-.7 1.1-1.5 2-2.7 2.6-.1 1.1-1 1.3-1.7 1.8-.2.4.4.1.3.3-.4.7-.5 1.7-1.4 1.8-.6 1.9-2.3 2.7-2.5 5-.4.2-.6.6-1.3.5-.2.9.6.9.6 1.5.6-.2 1-.8.8-1.5 1.6-2 2.5-4.6 4.5-6.2.4-1.2 1.4-1.7 1.8-2.9.3-.2.5-.5.9-.6-.1-.4.2-.4.2-.7 1.4-1.4 3.1-2.4 4-4.2z"/><path d="m365.2 247.7c-.4-.1-1.2-.6-1.6-.4-.9.5-2.3.1-3.3.2-.8.1-1.6.5-2.5.6-1 .1-1.6.2-2.5.3-.5.1-1 0-1.5.1-.2 0-.3.2-.5.3-.3.1-.6 0-.9.1-.5.1-1 .2-1.5.3-1.6.3-3.7.5-4.1 1.8.6.4 1.2-.1 1.7-.3 1-.4 2.1-.7 3.1-1 1.3-.3 2.6-.6 4-.7.9-.1 1.9-.3 2.7-.3 1.2 0 2.3-.3 3.5-.4 1.8-.2 3.8.1 5.2.1-.1-.7-1.1-.9-1.8-.7z"/><path d="m371.6 247.7c.4.4.9.8 1.7.9-.1-.7-1.2-1.9-1.7-.9z"/><path d="m368.3 248.9c.5.5 1.5.9 2.2.8-.3-.5-1.6-1.9-2.2-.8z"/><path d="m373.9 250.9c-.4-.4-1.3-.7-1.8-.6v.3c.9.1 1.1.7 1.7 1.1-.1-.5.4-.5.1-.8z"/><path d="m344 252.2c.9 0 1.4-.2 1.5-1-.7-.3-1.2.5-1.5 1z"/><path d="m341.7 253.7c.8-.1 1.4-.4 1.4-1.3-.6.1-1 .4-1.5.6 0 .3 0 .6.1.7z"/><path d="m340.6 253.6c-.2.2 0 .4.1.6.3.1.2-.2.4-.2 0-.3-.1-.4-.5-.4z"/><path d="m334.7 258.9c.7-.5 1.4-1 1.7-1.8 0-.1 0-.3-.2-.2-.5.5-1.2.8-1.8 1.3-.3.2.2.6-.2.6-3.3.6-5.9 2-8 3.8-.2.2-.2.5-.3.7-.8.2-1.2.9-1.9 1.3-.9.6-2.2.9-2.4 2.1.5 0 .9-.2 1.3 0 .3-.3.7-.5 1.1-.6.4-1.1 1.5-1.5 2.1-2.3.9-.4 1.5-1.2 2.3-1.7.7-.4 1.4-.6 2.1-1 .5-.3 1-.8 1.5-1.1.8-.4 1.8-.6 2.7-1.1z"/><path d="m321.1 267.8c0-.2 0-.3 0-.5-.3.1-.5.3-.7.5z"/><path d="m318.2 269.8c.3.1.3.5.6.5.2-.5.4-.9.8-1.2-.2-.3-.1-.9-.5-1-.2.2-.4.5-.2.9-.2.3-.6.5-.7.8z"/><path d="m316.4 273c.2-.1.3-.4.5-.6.4-.6 1.3-1.9.7-2.7-.2.8-.8 1.1-1.1 1.7.7.5-.5 1.1-.1 1.6z"/><path d="m314.8 274h.7c.2-.9-.8-.6-.7 0z"/><path d="m315.1 274.3c-.2-.1-.5-.1-.7-.2-.5.9-1.2 1.5-1.1 3 .7-.8 1.2-1.9 1.8-2.8z"/><path d="m311.7 280.6c.7-.8 1-1.9 1.6-2.8-.3-.1-.4-.3-.9-.3.1.6-.4.6-.2 1.3-1.1 1.1-1.7 2.7-1.8 4.8.9-.5 1-1.8 1.3-3z"/><path d="m305.5 297c.7-.3 1.1-.8 1.3-1.5.2-.6.2-1.1.3-1.8.3-1.1.9-2 1.3-2.9.5-1.3.6-2.5.9-3.8.4-.6.9-1.2 1.2-2-.4-.1-.6-.4-.8-.7-.7.2-1.1.3-1.5 1 .2 1.3-.3 2.5 0 3.2-1 1-.8 3.2-2 4-.5-.1-.7.2-1.1.4.4 1-.7 1.3-.7 2 0 .3.4.4.2.9.5 0 .6.4.9.6-.3.1-.2.4 0 .6z"/><path d="m53.1 218.5c2.2-.1 4.3-.3 6.4-.3 1 0 2.4.3 3.3.1 1.2-.2 2.5-1 3.7-1.4 3.8-1.4 7.5-2.9 11.2-4.2.3.5 1.2.3 1.1 1.3.6-.2.9-.8 1.3-1.3 3.8-1.9 6.9-4.5 11.1-5.6.3-.1.4.2.7.1s.4-.5.6-.8c.3.4 1 .5 1.4.8.3-.4.6-.9 1.1-1.1.4-.9.9-1.9 1.6-2.3.4-.1 0 .8.5.6 20.8 1.2 42 2.5 62.5 3.7.5 1.3 1.8 2.3 1.8 3.7-.5-.2-1-.3-1.5-.5-.6.9-.4 1.9-.4 3.1.4.3.7.7 1.3.9 1.8-.9 2.9-2.5 4.6-3.4 2.6 3.1 4.7 6.8 7 10.2-.1 3-.4 5.8-.6 8.7 17.4.2 34 .7 51.5.9-.1.8.2 1.2.1 2 .5 0 2 .1 2.7-.1.6.4 1.1.8 1.8 1 6.3 8 13.2 15.6 19.5 23.5.5.6 1.1 1.1 1.6 1.8.7.8 1.1 1.8 1.8 2.6s1.3 1.6 2 2.4c1.1 1.3 2.4 2.3 3.4 3.7 7.3 9.6 15.4 18.3 23.1 27.5 1.4-1.3 3.9-1 5.6-2 .6-.4.9-1 1.4-1.4.7.4 1.4.8 2.1 1.1.7-.2.8-1.1 1.4-1.4 1.6-.6 2.8.1 4 .3.4.1.9.1 1.3.1 1.1 0 1.8-.6 2.6-.6.8-.1 1.9.4 2.8.6.9.3 1.8.6 2.9.5.3-.3-.2-.6.1-.9.6-.4 1.5-.8 2-1.4.4-.5 1-1.7 1.1-2.4.1-.6-.1-1.4 0-2 0-.3.2-.6.2-.9.2-1.7-.1-3.3.1-4.3-.8.2-1.4.3-1.7-.5.2-.7.2-2.1.3-2.6.6 0 1.3-.1 1.4.5-.2.6-.2 1.3-.4 1.8.7.7 2.4 2.6 2.7.3 0 .2-.1.6.2.5.7-1.4 1.1-3.1 1.4-5 .4-.7.7-1.6.7-2.7.4-.1.6-.6 1-.8.6-1.8 1.8-3 2.6-4.7.9-.3 1-1.5 1.6-2.2.1-.5-.2-.5-.1-1 1.5-.6 2.3-2.2 3.3-3.2.2-.2.5-.2.6-.4.3-.3.4-.8.7-1.1.6-.6 1.4-.9 1.9-1.4.2-.2.3-.5.4-.6.6-.7 1.3-.8 1.9-1.4.9-.8 1.4-2.4 2.7-2.7.3-.6.7-1.3 1.2-1.4 1-.2 2-.8 3-1.4.4-.2.4.1.7.1.2-.5.6-.8 1.1-.9.1-.7.2-1.4.3-2.1-.7-1.2-2.4-1.3-3-2.7.2-.6.5-1 .7-1.5.7.7 1.4.5 2-.1.5.4.5 1.2.3 2 .6.3 1.1.7 1.7 1-.1.5-.6.8-.2 1.1.6.7 1 0 1.7-.1-.1.5-.8.5-.5 1 1 .6 1.4-.7 1.9-1.3s1.5-1.2 1.2-2.2c-1.1.4-1.6 1.6-2.4 2.3.6-1.7 1.5-2.9 3.2-3.2.9-.8 1.7-1.8 2.6-2.5.8-.7 1.7-2.2 2.3-2.4.4-.1 1.1 0 1.7 0 1-.1 1.8-.5 2.6 0 .7-.4 1.3-.8 2-1.2.7-.3 1.4-.9 2-1.2.3-.1.6 0 .9-.1s.5-.4.8-.5c.5-.2 1.1-.3 1.6-.3.2 0 .4.2.6.3 1.6.1 3.6-.3 5.1 0 .5.1 1 .4 1.5.4.8-.1 1.6-.9 2.3-.9.1 1.4 1.6 1.9 2.6 1.5.7-1.2-.1-3.7.5-4.7.7.1 1-.2 1.5-.3.5 1.4-.5 1.7-.4 2.8.1 2 2.4 1.2 3.9 1.3.2-1.3-.2-1.9-.4-3.1.6-.9.7-2.3 2-2.3-.1.9-1 1.3-.9 2 1.6.7 2.1-2.3 2.7-3.4.6-1.3 1.4-2.2 2.8-2.3.5-.7 1.3-1.2 2.1-1.5.2-.7.6-1.1.9-1.7.1-.6-.5-.3-.4-.9.3-.5.7-1.1 1.4-1.1.3-.7.9-.8.9-1.7 0-.4-.1-.3-.4-.8-.4-.7-.6-1.3-1.2-1.1 0-.8-.5-1-.6-1.7.1-.4.7-.2.6-.8-.6-.5-1.8-.9-2.3-1-.4 2.3 1.2 3.2 1.7 4.9-.9-.2-1.5-.8-2.7-.6-.3.5-.5 1.1-1 1.4-.7-.3-1.6-.2-1.6-1.4.5-.4 0-.8.3-1.5-.5-1.2-.3-2.5-.4-4.2-.6-.1-1.3-.6-1.7-.5v1.3c-.2.3-.6.2-.9.4-.3 1-.5 2.2-1.1 2.8-.8-.6-2.2.1-2.8.6-1.2-.1-2.6.6-4.1.6-.8.6-1.7 1.6-2.6 1.8-.6.7-.9 1.7-1.7 1.9-1.7.5-3.7-1.4-5.3-.9-.5-.3-1-1-1.7-.6-1-1.1-2.3-1.9-3.4-2.8-.4-.3-.6.3-.9 0-.4-2.4-1.5-4.8-2.1-6.6 1.4.3 2 1.5 2.9 2.4h.7c.9.9 1.9 2.1 3.1 3.2.5.5 1.1.8 1.8 1.3 1.2.9 1.2 1.6 2.7 1.2.4-.1.9-.2 1.1-.3 1.1-.5 1.8-1.9 3-2.2 1.4-1.9 3.5-2.9 5.6-3.9 0-.8-.2-1.4-.4-1.9.5-.5.8-1 1.5-.9.5-1 1.1-1.9 1.4-3.1-.4-.4-1.1-.5-1.6-.8-.4.2-.5.7-.9.9-.3-.3-.7-.4-1-.8-.4-.1-.9 0-1-.5.8-.7 1.6-1.4 2.4-2 .8.3 1.9 1 2.8.8.3-1.1-.5-1.8-.8-2.6.9-.3 1.5-.8 2.3-1.1.2-.6.4-1.2 1.2-1.2-.4-.9-.3-2.5-1.3-2.7-.1-.4.3-.3.2-.6-1.5-1.1-4.3-2-6.3-1-.4-1.5-2-1.5-3.2-2-.2.1-1.1.5-1.3-.3.1-.3.7.1.6-.4-.5-.6-1.2-.9-1.9-1.2-1.1-.4-1.8-.9-2.9-1.2-.7-.6-1.4-1.5-2.2-1.9-.4-.2-.8-.1-1.2-.3-.6-.3-1.1-1.1-1.7-1.3-.8-.2-1.7.3-2.6.4-.1-.7-.7-.9-.6-1.8-.3-.4-1.2-.5-.9-1 .5.5 1.2.2 1.7.4 1.3.4 2.4 1.2 3.8 1.4.8.1 1.7-.1 2.5.1s1.4 1.3 2.2 1.7c1.7.8 3.5.4 5.3.8.8.9 2.8 2 4.3 1-.3-1.9-.9-3.6-1.1-5.7-.6-.5-.7-1.4-1.1-2.2.6-.3 1.2-.7 1.5-1.3.8 0 1.6.7 2.1.8.8.1 1.6-.6 2.5-.3.3-.2.6-.9 1-.6 0 .8 0 1.4-.1 1.9-1.4.7-3.6-.2-5 .6.5 1.1 1.3 2.1 1.1 3.7.4.4.5 1.1 1.2 1.2v2c.3.3.7.8 1.3.5.6.6 1.1 1.1 1.9 1.4.4-.1.2-1 .6-1.2.4.1.3.4.6.1.7-.9 1.1-2.1 2.1-2.7.5.3.3 1.4.3 2.3.4.5.5 1.3 1.1 1.7.7-.3.8-1.2 1.5-1.5.8 1.5 1.8 2.6 3.2 3.4.3-.5.5-1.1 1-1.5.9.7 2.5 2.8 3.7 1.5.4 0 .2.7.6.6 1.3-1 2.7-1.8 4.2-2.5.2-1 .2-2.2.4-3.2.5-.2 1.4-.1 2.1-.1.2-.3.1-.9.1-1.4.5-.3.7-1.1.8-1.9.6-.5.7-1.6 1.8-1.4.3-.7-.8-.8-.7-1.7.8-.5 1.2-1.4 2.2-1.7.4-.7.8-1.3 1.2-1.9.1-.3.7-.2.8-.6.1-.9-.2-2.2.1-2.9 1.1 1.7 1.9 3.8 4.7 2.9.6-1.3 1.5-2.2 2.5-3.1-.1-2.4-2-3.2-1.8-5.5.6-.1 1 0 1.3.3-.1.4 0 .7.1 1 .6.1 1.1.4 1.8.3-.1-1.4-.8-2.6-1.1-4-.1-.6-.1-1.3-.2-1.9-.1-.4-.3-.5-.3-.9 0-.7.3-1.4.3-2.2 0-1.9-.6-2.9-1.1-4.3-.3-.8-.4-1.9-.7-2.6-.3-.6-.9-.9-.8-1.7-.8-1-1.8-1.9-3-2.5-.4.4-.8 0-1.1.1-1.3 1.3-2.3 3.1-4.5 3.4-.5 1.4-1.1 3.1-1.2 5 0 .4.2.8.2 1.3 0 .2-.2.6-.2.9-.1.8 0 1.6 0 2.3-.1 1.1-.3 1.8-.4 2.5-.3 2-.2 3.9-.7 5.2-.4.2-.9.3-1 .9-.3-.3-.6-.6-.9-.9.3-.5.6-1 .8-1.7-.9-.6-.8-1.6-.8-3.1 0-2.9-.4-5.7-.4-7.9.6-1.2 1.7-3 .5-4.3.4-.7 1.1-1.1 1.5-1.8-.1-.6-.1-1 .1-1.4-.7-.4-1.3-1-1.8-1.7-1.9-.3-4.1-.6-6.2-.4-1.4.2-2.5 1.1-3.7 1.1-.4.5-1.1.8-1.6 1.3-.9.1-1.3.6-1.8 1.1-.6-.1-1-.4-1.7-.4-.5-.9-.8-2.1-1.7-2.5-1.9.9-4.2 1.4-5.9 2.5-2.8.2-5.4.7-8.3.4-.2-.3-.5-.6-.6-1 .6-1.1 1.5-1.7 1.9-2.9-.2-.6-.9-.6-1.1-1.2-.2-.4-.1-.7 0-1.1-1.4-2.1-1.4-6-2.5-8.5.4-1.9.3-4.8 1.6-5.4.5 1.9-.3 3.8-.2 5.5 0 .4.3.8.4 1.3.2 1.4.8 2 1.1 3.1.2.7.1 1.5.2 2.3 1 .4 2.7.1 3.8.4.3.4.2.9 0 1.3.7.4.6 1.5 1.4 1.8 1.2.5 2.8-.3 4.1-.3.4-.4.8-.7 1.5-.5 1.2-1.3 1.9-3.4 3.7-4.1 1-.4 2.2-.1 3.3-.8-.7-1.4-1.8-2.3-3.4-2.6-.2-.6-1-1-1.1-1.5v-.1.1c1 .9 2.6 1.2 4.2 1.4.7.5 1.6 1.2 2.7 1.7.9.4 2.3 1 3.2 0-.7-1.2-2.1-1.6-1.8-3.9.4.4.7 1 1.3 1.5.4.4 1 1.2 1.6 1.3.3.1 1.8-.5 2-.5.3 0 .4.3.6.3.1 0 .3-.2.5-.3.3-.1.7 0 .7 0 .7-.3 1.1-1.3 1.6-1.5-.6-1.9-1.8-3.3-2.9-4.8-.5-.8-.9-1.7-1.5-2.4-.5-.5-1.2-.8-1.7-1.3 0-.3-.4-.8-.2-.9 1.1 0 1.7.9 2.7.5.9 1.3 2.3 2.4 3.4 3.8.6.7 1 1.7 1.6 2.3 1.1 1.2 3.1 2.1 5.2 1.5-.1-.7-.9-.6-1.2-1.1-.3-1.7-1-4.3-.4-5.9-.2 1.3.8 1.8 1.3 2.7.3.6.3 1.5.6 2.2.3.5.8.8 1.1 1.3.4.6.5 1.3 1 1.8-.6 3.3 1.2 5.4 3.8 5.6-.1-1.2-1.1-1.8-.7-3.2-.6-.6-.7-1.9-1.1-2.8-.2-.5-.6-.8-.5-1.3-.2-.7.3-.6.3-1-.4-.6-.7-1.2-1-1.9-.2-.3-.6-.2-.6-.6-.6-2-.9-3.9-1.5-5.7-.3-.8-.8-1.4-1-2.2-.3-1.3-.2-2.9-.2-4.5-.4-.2-.5-.7-.9-.9-.1.3-.3.4-.6.5-.2 1.2.5 2-.1 2.8-1-.3-1.5-1.2-1.7-2.4.2-.7.6-.3 1-.8-.1-.9-1-.7-1.6-.9-.8-1.2-1.4-2.7-1.8-4.5.5-.3.6-1.2.9-1.8 1.1.6 1.8 1.7 2 3.3.4.3.7-.4 1.2-.4.3.4 1.4.3 1.9.1.3.1.4.7.6.4-.1-1.3-.5-2.8-.6-4.3-16-.2-31.9-.3-47.8-.3-.6 0-1.3.2-1.9.3-1 .1-2.1-.1-3.1-.1-14 0-28.8 0-43.3 0-4.9 0-9.8-.3-14.6 0-3.5.2-7.1-.1-10.8.1-6 .3-13.3-.1-19.2.3-9 .5-18.1-.4-27 .1-3.4.2-6.7.2-9.9 0-6.1-.3-12.8-.1-18.5-.4-2.1-.1-4.3.2-6.2.1-.3 0-.7-.2-1-.3-1.5-.1-2.9.1-4.3 0-5.6-.3-11-.1-16.7-.4-10.6-.6-21.4-.6-31.8-1.1-5.7-.3-11.1-1.1-16.7-1.7-.8 1.2-1.3 2.6-1.5 4.5-.1.3-.5.2-.4.6.4 1 .5 2.4.6 3.7-.1.4-.9 0-.9.5.1 1-.7 2.1-.8 3.2-.2 1.7.2 3.3 0 4.6-1.3.1-2.2-.4-3.2-.4-2.6.1-4.2 2.5-5.7 4.2-.2.3-.3.9-.4 1.3-.6.5-.8 1.4-1.2 2.2-.3.6-.8 1.2-1.1 1.8-.3.7-.4 1.6-.7 2.3-.2.3-.5.5-.6.8-.6 1-.9 2.1-1.6 2.8-.4 0-.5-.3-1-.3-.2 1.3-1.7 1-2.5 1.5-.6-.7-1.4-1.2-1.4-2.3-1-.8-2.8-.6-4-1.3-.5 1-1.5 1.4-2.2 2-1.8-.2-2.6.6-4.2.6-1.3 1.3-3.1 2.1-3.3 4.7-1.9 2.2-3.8 7.3-7.8 5.4-.4-1.2-.3-3.3-.2-4.5-.7-.5-1-1.6-1.8-2-.9.4-1.7 1-2.3 1.8-1.3.6-2.2 1.7-3.4 2.4-.6-.1-.9.3-1.4.5 0 1.1.2 1.8.1 2.9-.5.5-.7 1.3-1.4 1.7-.5-.4-1-.8-1.5-1.3-.8-.1-1.5.3-2-.1-.3.8-1.1.9-1.2 1.8s.6 2.1.6 3.2c-.3.2-.6.4-1 .5-.1 2-1.2 2.7-1.5 4.5-.5.4-.8.8-1.3 1-1.2.4-2.7-.3-3.8-.3-.6 0-1.2.5-1.8.8-.8.4-1.6.8-2.6.8-.8 1-1.4 2.3-2.3 3.2-.7-.4-1.5.1-2.3 0-.5 1.9-1.5 3.3-2.8 4.3-.3-.3-.7-.5-1.2-.6-1.1 1.2-2.2 2.3-3.5 3.1-.5.3-1.1.3-1.5.6-1.2.9-1.8 2.8-3.2 3.3-.8-.6-1.7 0-2.6-.1-.8-.1-1.3-.9-2-1-.8.7-1.8.7-2.9.6-1.8-.1-3.5.5-5 .6-.3.3-.5.8-.8 1.1-.6-.1-1 .5-1.5.8-.3.2-.7.1-1 .3-.6.3-1.1 1.2-1.8.8-.5.5-.6 1.3-.9 1.9-.9 1.3-2.8 2-4.4 2-.2.6-.3 1.4-.3 2.2-.3.5-.8.6-.8 1.3 0 .5.5 1.1.5 1.5 0 1-.9 1.5-1.2 2.4-.1.3-.2.9-.2 1.2-.1.6-.2 1.5.1 2.3-.4.8-1.3 1-1.3 2.2-.6.3-1 .8-1.6 1.2-.7-.6-1.1.1-1.6.4-.8-.4-1.7-.1-2.6-.4-.4-.1-.7-.6-1.1-.8-.3-.1-.8.1-1.1-.3-1 .5-1.5 1.5-2.3 2.2.4 1.1.2 1.7-.2 2.1.1 1.9-.4 3.3-.5 5-.1 1.3.1 2.7 0 3.9 0 .4-.2.8-.3 1.1-.2 1.3-.4 2.7-.1 3.6 0 .4-.3.5-.4.8.3.1.4.4.5.8 9.7-.4 19.9 0 29.9-.5 5.9-.4 11.9 0 17.6-.2z"/></g></g></svg>