<svg enable-background="new 0 0 432 432" viewBox="0 0 432 432" xmlns="http://www.w3.org/2000/svg"><g clip-rule="evenodd" fill="#a72a22" fill-rule="evenodd"><path d="m404.1 23.9c-.1 0-.6.3-.9.4-1.3.5-3.6 1.2-4.7.8-2.3 1.8-5.5 2.8-8.6 3.8-3.2 1-6.5 2-9.8 2.3-.6.6-2.2 1.5-3.2 1.7-.5.1-.7.3-1.1-.2-2.4 2.2-5.5 2.9-8.8 3.5-3 .5-5.1 1-7.5 2-2.8 1.1-5.5 2.3-8.2 3.3-.8.3-1.6.5-2.4.7-.9.2-1.9.3-2.6.6-.6.3-1 1.1-1.5 1.5-2.9 2.4-7.5 2.6-11 4.5-.6.3-1.2.9-1.8 1.2-.3.1-.9.1-1.2.3-.9.4-1.5.9-2.7.6-1.1.5-1.4 1.9-2.1 2.7-.3.4-1.1.8-1.7 1.2-1.2.9-1.9 1.6-3.8 1.5-.7 4.1-4.3 5.1-7.4 7.7-1.2 1-2.1 2.1-3.2 2.9-.6.4-1.3.8-1.8 1.2-.6.5-1 1-1.7 1.4s-2 1-2.6 1.1c-1.6.2-3.5-.4-5.1-.3-.4 1.3-.7 2.8-.9 3.9-.9.2-.9.7-1.7.5-1.1-.5-.5-1.9-1.5-2.1-1.3-.2-1.4 1-1.5 2-3 1.5-7.3 2.5-11.2 2.4-2.7-.1-4.4-.9-6.3-1.7-1-.4-1.9-1-2.7-1.2-1.1-.3-4.2-.8-5.1-.6s-1.3 1.2-2.1 1.7c-.9.4-2.3.5-3.5.9-1.8.5-3.1 1.2-4.8 1.5-.5-.1-1.4-.3-2.1 0s-1 1.5-1.8 2.3c-.2.2-.6.4-.9.6-1.1.7-2.4 1.4-3.3 1.7-2.7.9-7.2.1-9.8 1.1-.6.2-1.5.9-2.3 1.4s-1.7 1.1-2.4 1.3c-1.2.5-2.5.2-3.6-.1-.5.2-.9.6-1.7.6-.4 0 .2 1-.5.8-.7.4-1.9.2-2.4.8-.5-.4-1-.7-2-.6-1.3-1.3-2.9-2.3-4.8-3-.3-.5-.8-1-1.2-1.5-2.7-1.3-4.5-3.3-6.3-5.4-.5 0-.8-.1-1.1-.3-.3.1-.7-.7-.7 0-.7.5.6 1.4 1.2 1.7 1.4 1.2 3 2.6 4.2 3.8.4.4 1.4.6 1.1 1.4-2-.8-3.3-2.8-5.4-3.5-.9-.3-1.9-.1-2.7-.8-.8.6-2 .8-2.9 1.4-.4-.5-1.7-.1-2.4 0-1.2-1-2-2.5-4.4-2.4-.5.2-.8.8-1.4.4-.1.8-.6 1-1.1 1.4-1.1.8-2.2.7-3.6 1.2-.7.3-1.3.9-2.1 1.2-.9.3-1.9.2-2.6.9-1.9-.6-2.2-2.5-4.2-2.9-.9-.1.2.8-.6.8-1.2-.3-2.5-.9-3.5-1.2-.4-.1-1 0-1.2-.5 1.4 0 2.7-.7 4.1-.3.7-.4 1.3-.9 2.3-1.1.3-.4.3-1.1.9-1.2 1.6-.5 3.5-.3 5.6-.5 1.3-.1 2.7-.5 4.1-.6.7-.1 1.4.1 2.1 0s1.3-.6 2-.8c.5-.1 1 0 1.5-.1s.9-.4 1.4-.5c.8-.1 1.1.3 1.7.3.1 0 .4-.2.6-.3.8-.2 1.7-.5 2.3-.3.8.3.5 1.7 1.7 1.4.5-.9-.5-1.7-.6-2.4.4-.5 1-1.5.8-2.1 0-.9-1.1-.9-.9-1.7-1.1 1.1-4.1.2-5.6.9-2.3-1.2-3.9-3-5.4-5-.4.7-1.1 1-1.7 1.5.1 1.3-.6 2.4-.5 3.3-.9.6-1.4 1.7-2.4 2.1-.9.4-2 .2-2.7.9-1.4-.2-2.7-1.1-4.1-.9-2.2-1.2-4.1-2.6-6-4.1-.2-.6-.6-.9-.7-1.5-1.6-.7-2-2.4-3.5-3.3-1.8-1.1-4.1-1.4-6.9-1.7-1-.8-2.4-.7-3.5-1.1-1-.4-1.8-1.4-3-1.2-1.1-1.7-3-2.5-4.7-3.5s-2.9-2.8-5-3.3c-.7.4-.5 1.1-1.2 1.5-2 1.1-6.2-.6-8.2-.9-.4-.5-.8-.9-1.2-1.4-.2-.6.1-1-.2-1.7-.7-.2-1-.8-1.7-1.1-40.5 1.5-80.2 2.8-119.4 4.4-.6 92.1-1.2 185.6-1.7 278.3.8-.2.5.7 1.1.7 3-.5 4.1-2.9 6.8-3.6 1 .6 1.9 1.4 3.2 1.8.6.8 1.7 1.4 2.9 2 1.1.5 2.4 1.3 3.3 1.5 2.6.6 4-1.8 6.3-2.1.5.3 1.3.4 1.8.8.1.7-.9.8-.5 1.4 1.7.2 2.7-.1 4.2-.3.7-1.3 2.2-1.9 3-3 .8 1 2.2 1.6 2.6 3 .2.7-.2 1.7 0 2.5s.8 1.2.8 2c.6.1 1.1.4 1.4.9 2.3.1 4 .7 6 1 1 1 2.6 1.9 3.3 3.3.5 1 .5 2.3.9 3.6.5 1.5 1.7 3 2.6 4.4.4.7.9 1.4 1.4 2.1.5.8 1.3 1.5 1.5 2.1.6 1.8-.2 4.3.1 6.2.7 1.1 1.2 2.4 2.3 3 .8.5 1.9.6 2.9.9 2.1.6 4 1.1 6 1.8 1.8.6 3.4 1.1 5.7.9 1.3-.1 2.8-.3 4.1-.6.8-.2 1.7-.8 2.6-.9 1.7-.2 3.6.5 5 1.3 2.2.1 3.5.9 5.1 1.5 1.3 1.7 1.9 4.1 3.5 5.4 3 .1 3.9 3.6 5 6.2 1.2.1 1.9.7 3.3.6 2.1.9 3.9 2.1 6.8 2.1 1.3-.9 2.2-2.3 1.9-4.8 1.4-1.5 3.1-2.5 5.3-3.2.7-.2 1.5-.5 2.1-.6 1.3-.1 2.2.7 3.6.6 2.5 2.3 6.2 3.9 10.6 4.2.7.1 1.4-.1 2.1 0 2.7.4 4.2 2.6 5.7 4.1 1.3-.2 2 .4 3.2.3.8-.1 1.4-.6 2.1-.6 1 0 1.7.8 2.6.9 5.3.8 6.6-3.5 9.2-5.4 1.6-1.1 4.1-1.7 5.7-3.2 1.1-1 2.2-3.1 3.6-3.3.8-.1 1.6.3 2.3.3 2.2-.1 3.2-1.5 5.1-2.6 1 0 1.8-.1 2.6-.3.8.6 2 1 2.4 1.9-.3 1-.5 2.2-.8 3.2.5.8.2 1.7.5 2.5.2.8.7 1.5.9 2.3s.5 1.8.6 2.6c.1.6-.2 1.3-.1 1.8.1 1.1.8 1.9 1.1 2.9 2 1.6 3.6 3.3 6.3 3.6 1.1.1 2.2-.2 3.3 0 .6.1 1.4.6 2.1.9 2 .9 2.4 1.7 3.5 3.3.6.8 1 1.7 1.5 2.4 1.3 1.5 4 2.5 4.8 4.2.5 1 .3 2.4.8 3.5.4.9 1.2 1.2 1.7 2.1.6-.1.9.2 1.2.5 3.6.2 5.5-.8 8.2-1.7 1.6-.5 3.4-1.3 5.1-1.7 1.5-.3 3 0 4.5-.1 1.7-.2 3.1-.8 4.5-1.6.6-2.3 2.5-5.3 1.4-7.8 1.3-1 1.5-3.1 1.5-5.4.9-1.1 2-2 3.3-2.6 1.4.5 3 .7 4.7.9.5-.6 2-1.1 2.4-2 1-2.5-.8-5.5-.9-7.7-.1-1.2.3-2 .3-2.7 0-1-.7-2.4-.9-3.6-.1-.7.2-1.4 0-1.8-.3-.9-1.4-1.3-1.8-2.2-.1-.3 0-1.3-.3-1.5.7-1.2 1.8-2 3-2.9 1.1-.8 2.7-1.3 3.3-2.6.7-1.6.1-3.9.5-6.3 1-1.2 1.9-2.3 2.6-3.6.6-1.1 1-2.8 1.7-3.8 1.2-1.7 3.3-2.2 4.4-3.9.1-1 .4-1.9 1.1-2.4 1-.1 1.6.2 2.4.3.8 1.1 1.6 2.8 2.9 3.3.8.3 1.8 0 2.9.5 1.4 1.8 2.4 3.9 3 6.5-.8.9-1.9 1.6-2.4 2.9.6 1.5 1.1 2.5 2.4 2.7 2.1.3 4.9-1.5 5.6-3.2.5-1.3.3-3.8 1.7-3.9-.1 0 1.2.8 1.4.9 1.9.9 3.3 1.9 5 .3-.1-1.3-.9-1.6-1.2-2.6-.6-2.4 1.4-4.7.5-7.4-.7-.8-1.5-1.7-2.3-2.6-.7-1-1.4-2-1.7-3 .5 0 .5-.4.6-.7 1.3.7 3 0 4.2-.3.4-.7.8-1.3 1.3-1.8-.1-2.8 0-6.1-1.1-8.3.9-.7 1.3-2 2.1-2.6.9-.6 2.3-.6 3.3-1.2-.2-1.7 0-4.4.6-5.9 1.1-.5 2.1-1.1 3.5-1 1.1 0 2.3.9 3.2.3 1 .6 2.8.7 4.1.3.2-1.9.5-3.8.6-5.9.9-.8 1.1-1.9 2-2.7 1-1 2.6-1.3 3.6-2.3.8-.7 1.3-1.9 2.1-2.7.5-.5 1.2-.9 1.8-1.2 1.8.5 2.9 1.6 3.6 3.3.2.5.2 1.3.5 1.8.3.6 1.7 2 2.1 2.1 1.9.6 3.5-.5 4.4-1 2.9-1.6 5-3.7 9.3-3.6 1.7-1.2 2.9-3 4.1-4.7 1-.3 2.1-.8 3-1.2s2.1-1 2.7-1.7c.7-.7 1.1-1.8 1.7-2.6.6-.9 1.2-1.6 1.9-2.4 3.4-3.8 7.4-7.3 11.5-10.4.9-.7 1.9-1.6 2.6-1.8 1.6-.4 3 .2 4.1-.6 1.3-1 1-5.3 1.5-7.1.7-.6 1.5-1 2.3-1.5-.1-1.7.2-2.8-.6-4.1-.7-1.1-2.2-1.4-2-3 .1-.5 1.3-1.4 1.8-2 .7-.7 1.5-1.3 1.8-2.1.7-2.2-.5-3.6.5-6.2 1.2 1 2.7 0 2.9-.9.2-1.3-1.9-3.4-1.5-4.2 1.2-.5 3 .2 3.9 0 1.1-1.4-.2-3.2.2-4.7.2-.7 1.2-1.2 1.5-2 .5-1.3.3-2.9.5-4.7.2-2.2.8-4.3 0-6.2.7-.5.5-1.3 1.1-2.1.5-.8 1.4-1 1.7-1.9.2-.9-.1-2 0-2.9.3-3.4 2.9-5.4 3.8-8.2.2-1.2.7-2.1.9-3.3.6-.4 1-.8 1.5-1.2.6-.4 1.1-.6 1.5-1.2 1.1-1.6 1-4 2.1-5.7-.4-1.9-.7-3.9-.6-6.3-.5-.9-1.5-1.1-2-2 1-1.3 1.5-2.7 1.8-4.5.1-.5.2-.9.3-1.4.5-3-.1-4.5-1.2-7.2-.5-1.3-1.1-2.7-1.5-3.5-.8-1.3-3-2.8-2.7-4.1.2-.7 1.5-1.8 2.1-2.2.8-.7 1.8-1.3 2.7-1.8.7.3 1.5 1.2 2.4.9.8-.1.2-1.7.5-2 1.7-.2 3.2-.7 5-.9.2-47.9.8-96.2.5-144.1-1.2 1.2-1.5.3-2.5.5z"/><path d="m200.5 51.9c-.5-.5-.2-1.2-.6-1.5-.8-.5-2 .7-2 1.2.1.8 2.3 1.2 2.6.3z"/><path d="m202.9 53.3c-2.2 0-3.6.8-4.2 2.4.6.2.8.7 1.5.8.4-.8.6-1.8 2-1.7 0-.7.9-1 .7-1.5z"/><path d="m196.5 58.1c.5 1.1.5 2.1.8 3.2 1.7-1.1 3.6-1.9 4.5-3.8-.9-1-1.8.3-2.7.5-.8.1-1.8-.7-2.6.1z"/><path d="m209.5 61.6c-.2.4-.8.3-1.2.2-.4 1-1.2 1.6-1.2 3 .9 0 1.4.4 1.7 1 1.8.4 3.1.4 3.6-1.2-.5-.9.1-1.5 0-2.7-.9.7-2.3.6-2.9-.3z"/></g></svg>