<svg enable-background="new 0 0 432 432" viewBox="0 0 432 432" xmlns="http://www.w3.org/2000/svg"><path clip-rule="evenodd" d="m6 153h144.8v84.4c0 8.7.3 17.8 0 26.3 0 .4-.3 1 0 1.4 1 .8 1.4-.4 2.3-.6.5.5 1.3.4 1.8.7.3.2.7.8 1.2 1.2 1.6 1.5 3.3 3.2 4 5.2.4.4 1 .6 1.4 1s.7 1.1 1.4 1.2c.9.5 1.5 1.9 2.8 2.3.6.2 1.6.2 2.4.2s1.7.1 2.4-.2c.5-.6.7-1.6 1.3-2.2.5.5 1.2.1 2 .1 1.4 1 2.9 1.8 4.6 2.4.5-.3.9-.6 1.6-.6.2-.8.6-2.3.8-3.6.3.5.5-.1.8-.2.8 1.4 2.4 2 3.9 2.7.7 1.6 2.1 2.4 3 3.8-.3.8-.1 1.9 0 2.9s.3 2.1.6 2.9c.5 1.4 2 1.4 3 2.2 2.5-.3 5.1.2 7.4-.6.4.3.9.4 1.5.5.6 1.4 2 2 3.2 2.9 1.2-.1 2.4.2 3.3.6 1.4.5 2.7 1.4 4.4 1.3 2.3-.2 2.9-2.8 5.6-2.1 1.1.7 1.9 1.8 3 2.7.5.4 1.1.7 1.6 1.1.9.9 1.5 1.7 3 1.8.4-.3 1-.3 1.5-.5.5-.6.9-1.4 1.5-2 .1-1.4.9-2.3 1.7-3 .5.3 1.1.4 1.8.6.6.2 1.3.5 2 .6.5 0 1.1-.3 1.6-.2s1.1.5 1.6.7c.6.2 1.6.3 2.1.2 1.4-.3 1.3-2.1 2.4-2.8-.1.5.5.4.6.6 0 .1-.2.2-.1.3.2.3.4.7.7 1-.8 2.1-.3 4.6.1 6.6.8.2 1.3.8 2.1 1.1 1.5 0 3.3-.2 4.6.3.4 1.3-.5 1.9-.6 2.4 0 .2.2.3.2.5.2 1.1-.7 1.6-.8 2.7.9.3 1.6.9 2.4 1.4s1.7.9 2.5 1.4c.6-.5 1.5-.1 2-.3 1.8-1.2 3.4-2.6 4.5-4.4 1.4-.2 1.7-1.6 2.6-2.3.4 0 .5-.2.8-.3.8-.5.6-.4 1.3 0 .8.5 1.4.5 1.8 1.1.7.9.7 2.3 1.4 3 1.6.7 3.4-.7 4.7-.3.5.1 1.3 1.1 1.4 1.6.1.7-.3 1.6-.3 2.4.4.3.3.7.7 1 .8.6 2.2.3 3.6.3 1.3-.8 2.2-2.8 4-2.9.6 0 .9.4 1.6.3.5-.6.7-1.5 1.3-2.1.1-.1.4-.1.6-.2s.2-.4.5-.3c.1.6.8.8 1.1 1.3.4.5.5 1.1.8 1.7-.4.9-1.3 1.2-1.7 2 .7 1.4.2 3.4 1.3 4.6 1 .6 1.9 1.4 3.6 1.4-.1-.8 1.1-.8 1.3-1.6s-.3-2-.3-3c.8.3 1.3-.4 2-.6.2-.5.4-1 .6-1.6.6-.1 1-.8 1.5-1.4.4-.5 1-1.2 1.1-1.8.1-.8-.2-1.6-.3-2.5 1.3-.1 2.3-1.2 3.3-1.1.6.5.4 1.4.6 2.2.3 1.2 1 2.4 1.5 3.3 1.4.2 2.1-.3 2.9-.7.8.4 1.3 1.2 1.8 1.8.9.1 1.6.7 2.5.6.7-.1 1-.8 1.6-1 0-.5.1-1.1.5-1.5-.2-.6-.4-1.7-.3-2.2.5 0 1.3.1 1.6-.1.4.3.9.6 1.1 1 .7-.2 1.1.2 1.6.3-.2.8-1.2 1.3-1.2 2 .5.1.1.5.2.7.3.7 1.5 1 2 1.6.7-.2 1.5 0 2.2.1.3.2.2.5.3.7.4.7 1.2 1.1 1.7 1.6.9-.5 1.7.1 2.9 0 .6 1.3 2.1 2.1 2.8 3.3.3.5.4 1.7.9 1.8.6.2 1-.4 1.4-.7.4-.4.9-.8 1-1.2.4-1-.1-2.3.7-2.7s2.7 1.1 3.9.9c1.4-.2 1.7-1.9 2.5-3.2.8-1.2 1.8-1.6 2.9-2.2 2.1.6 4.2-.7 6.3-.8.1-.4.5-.6.8-.8s.7-.5 1-.7c.3.1.2.7.6.8 1.8.1 2.4 1.3 3.8 1.8.5-.4.8-1.1 1.6-1.3.6.2.7.8 1.5.7.3-.7.7-1.3.7-2.3.8.5 1.9-.3 3.1-.1 1-1.1 2.9-1.3 4.3-2.1.1-.5-.5-1-.3-1.3.5.5 1.3.7 2 1 .4.8.8 1.6 1 2.5.5-.1 1.4 0 2.1.3 1.7 0 4.8 1.1 7.1.5.6-.2.8-.6 1.4-.8.8.2 1.5.7 2.2.6s1.1-1.1 1.7-1.3c-.1-.8.4-2.9.9-3.2-.1.1.7.1.6.1 1.1-.1 1.8-.2 2.2.6.7-.2 1.2.1 1.8.2.1.2 0 .6.2.9 1 .4 1 1.6 2.1 2 .5.4.4-.8.9-.8.6 2.1 3.1 2.3 5 2.8.4.8.7 1.6.9 2.5.3.2.6-.3 1.3-.1 0 1.5.9 2.1 1.7 2.9 1 .9 1.6 1.4 3 1 .8.8 2.1 1 3 1.6.3.6.2-.4.8-.2.5.4.6 1.3 1.2 1.6 1.2.4 2.1-.2 3.1 0 .1.7-1.2.7-.6 1.3.5.1.8.4 1.4.3.3-.2.4-1 .8-.7-.1.7.4.6.9.7.8 1.7 2.9 2.6 5.4 2.1.5-.1 0-.2 0-.3-.1-.8.3-1.4.3-2.2.5-8.4.3-16.9.6-25.4.3-8.3.7-16.7.7-25.1s.6-16.9.7-25.4c.1-6.3.4-12.8.5-19 0-2.2.3-4.4.1-6.5-.2-2.4-.7-4.9-1-7.4s-.8-4.9-1.2-7.4c-1.8-12.3-3.6-25-5.3-37.1-.3-2.5-.9-5.1-1-7.5-.7-10.3-.1-21.4-.3-32.2-135 0-270 0-404.9 0-.2 9.7 0 19.6-.1 29.2z" fill="#a72a22" fill-rule="evenodd"/></svg>