<svg enable-background="new 0 0 432 432" viewBox="0 0 432 432" xmlns="http://www.w3.org/2000/svg"><g clip-rule="evenodd" fill="#a72a22" fill-rule="evenodd"><path d="m43.8 79.2c0-.1 0-.1 0-.2-.1 0-.1 0-.2 0v.2z"/><path d="m400 280.5c.7-1.4 1.3-1.8 2.4-2.7.5-.4 1.2-1.2 1.9-1.4 1.6-.5 3.7 0 5.6-.4-.1-45.4-.2-90.7-.4-136.1-3.3-.8-6.6-1.7-9.9-2.4-.7-1.4-.8-2.6-1.6-3.6-.7-.8-1.6-1.5-2.4-2.3-.9-1-2.1-1.8-2.3-3-.3-1.2-.8-2.8-.8-3.9 0-.8.3-1.8.4-2.6.1-.9.2-1.8.4-2.6s1.3-1.9 1.7-2.4c1.8-2.2 4.7-3.5 6.6-5.3.8-4.3 1.4-8.6 2.1-12.9-21.7 0-43.5.6-64.4 1-2 0-3.9.2-5.8.2-3.7 0-7.5-.5-11.2-.7-18.7-1.3-37.8-1.9-56.5-3-22.5-1.4-45.2-2.5-67.8-3.9-7.5-.5-15.1-.8-22.5-1.3-15-1.1-30-1.6-44.8-2.9-29.1-2.6-58.2-6.2-86.9-8.8-.1 0-.2.1-.2.3-6.8 72.2-13.7 144.5-20.6 216.9 93.1 4.2 186.3 8.4 279.5 12.6 8.8 6.4 17.5 12.9 26.4 19.2 6.1-2.3 11.4-4.5 17.2-6.6 1-.4 2.2-.5 3.4-.6 2.3-.3 4.9-.6 7.1-.8 1.2-.1 2.3.1 3.5.3 1.3.2 2.4.1 3.4.5.9.3 1.7.9 2.6 1.4 1.4.8 3.3 1.7 4.9 3.1.6.5 1.4 1.2 2.2 1.8.7.6 1.7 1.8 2.5 1.7 1.9-.2 5.2-.6 6.7-.8 4.8 4.6 9 9.7 13.8 14.3 1.1-1 2.2-1.9 3.4-2.7 2.5-13.9 5.7-27.1 8.9-40.3-1.4-1.1-3-2-4.5-2.9-1.6-1-2.5-2.5-3.6-4.1-.2-2.3-.7-4.8-.8-7.2 0-1.2-.2-2.6 0-3.6 0-.5.2-1.1.4-1.5z"/></g></svg>