<svg enable-background="new 0 0 432 432" viewBox="0 0 432 432" xmlns="http://www.w3.org/2000/svg"><path clip-rule="evenodd" d="m100.1 348.2c7.7.3 15.5.4 23.2.4 11.5 0 23 .7 34.5.7 1.9 0 3.7.3 5.6.3 32.7-.1 66.6 0 99.3 0 3.8 0 7.6-.3 11.5-.3 11.9 0 23.4-.3 35.1-.3 15.6 0 31.1 0 46.5-.4 7.6-.2 15.1-.8 22.7-.8h23.6c-2.1-58.1-3.8-116.5-6.6-174.1-1.6-32-2.2-64.1-3.8-95.8-.1-2.1-.5-4.8-.1-6.4.1-.5.7-1 .4-1.7-1.7.5-3.6.2-5.3.3-5.4.3-10.7.3-16 .5-7 .3-14.2.3-21.4.5-14.4.5-29 .8-43.7 1.2s-29.5.3-44.3.3c-7.4 0-14.8-.3-22.1-.3-7.5 0-14.9.1-22.4.1-30.1 0-59.7.7-88.6-.7-10.6-.5-21.3-.7-32.2-1.2-2.6-.1-5.8-.3-7.9-.1-2.4.2-4.7 1.6-7 1.4-3.4-.2-7.1-.9-10.4-.8-1.8.1-3.5.2-5.3.3-2 .1-3.8.4-5.5.1-1.4-.2-2.6-1-4.2-1.4-3.5-1-7.4.2-11.1-.3-.2.1-.3.2-.4.4-1.3 28.3-2.4 57.3-3.8 85.6-.6 11.7-.7 23.1-1.2 34.7s-.8 23-1.3 34.5c-.7 17.5-1 34.7-1.7 52-1 22.9-2.2 45.8-3 68.4 14.5.7 29.3 1.6 44.2 2.2 7.4.4 15 .3 22.7.7z" fill="#a72a22" fill-rule="evenodd"/></svg>