<svg viewBox="0 0 516.51 19.04" xmlns="http://www.w3.org/2000/svg"><path d="m338.88 18.1q-72.78-.2-145.55-.34c-12.71 0-25.45.42-38.1.77-34.4.95-68.59.46-102.81-.48-10.87-.3-22-.26-32.94-.36-12.19-.11-17.48-1.26-17.97-3.91-.51-2.88-1.79-5.78-1.45-8.63.14-1.25 2.73-2.56 5.53-3.69 2.63-1.06 7.91-1.46 13.65-1.46 50.27.27 100.56.4 150.81.85 33.07.29 65.9 0 98.88-.45 32.72-.4 65.58-.22 98.38-.24q62.19 0 124.37 0c12.38 0 18.88 1.07 20.58 3.74a32 32 0 0 1 4.19 9.22c.86 3.34-8.35 5.32-23.74 5.32q-76.92 0-153.83 0z" fill="#dd0010" fill-rule="evenodd"/></svg>