<svg viewBox="0 0 516.51 13.34" xmlns="http://www.w3.org/2000/svg"><path d="m338.88 12.68q-72.78-.12-145.55-.23c-12.71 0-25.45.29-38.1.53-34.4.67-68.59.33-102.81-.33-10.87-.21-22-.18-32.94-.25-12.19-.08-17.48-.89-17.97-2.74-.51-2.02-1.79-4.04-1.45-6.05.14-.88 2.73-1.8 5.53-2.61 2.63-.72 7.91-1 13.65-1 50.27.19 100.56.28 150.81.6 33.07.2 65.9 0 98.88-.32 32.72-.28 65.58-.16 98.38-.17q62.19 0 124.37 0c12.38 0 18.88.75 20.58 2.62a20 20 0 0 1 4.19 6.46c.86 2.34-8.35 3.73-23.74 3.73h-153.83v-.25" fill="#fff" fill-rule="evenodd"/></svg>